<svg xmlns="http://www.w3.org/2000/svg"
     width="16" height="16"
     viewBox="0 0 16 16">
  <style>
    path {
      fill: #008;
    }
    @media (prefers-color-scheme: dark) {
      path {
        fill: #fff;
      }
    }
  </style>
  <path d="M 15.98,8.00
           C 15.98,12.36 12.41,15.92 8.03,15.92
             3.65,15.92 0.09,12.36 0.09,8.00
             0.09,3.63 3.65,0.07 8.03,0.07
             12.41,0.07 15.98,3.63 15.98,7.99
             15.98,7.99 15.98,8.00 15.98,8.00
             15.98,8.00 15.98,8.00 15.98,8.00 Z
           M 12.93,11.66
           C 12.93,11.66 10.85,11.66 10.85,11.66
             10.85,11.66 8.81,12.79 8.81,12.79
             8.81,12.78 8.81,12.78 8.81,12.78
             8.59,12.91 8.33,12.98 8.05,12.98
             7.79,12.98 7.55,12.92 7.34,12.81
             7.34,12.81 5.31,11.66 5.31,11.66
             5.31,11.66 3.13,11.66 3.13,11.66
             4.25,13.14 6.03,14.10 8.03,14.10
             10.03,14.10 11.81,13.14 12.93,11.66
             12.93,11.66 12.93,11.66 12.93,11.66 Z
           M 14.10,8.81
           C 14.10,8.81 1.96,8.81 1.96,8.81
             2.01,9.20 2.10,9.57 2.22,9.94
             2.22,9.94 13.84,9.94 13.84,9.94
             13.96,9.57 14.05,9.20 14.10,8.81 Z
           M 3.13,4.33
           C 3.13,4.33 5.21,4.33 5.21,4.33
             5.21,4.33 7.25,3.20 7.25,3.20
             7.25,3.20 7.25,3.21 7.25,3.21
             7.47,3.08 7.73,3.01 8.02,3.01
             8.27,3.01 8.52,3.07 8.72,3.18
             8.72,3.18 10.75,4.33 10.75,4.33
             10.75,4.33 12.93,4.33 12.93,4.33
             11.81,2.85 10.03,1.89 8.03,1.89
             6.03,1.89 4.25,2.85 3.13,4.33
             3.13,4.33 3.13,4.33 3.13,4.33 Z
           M 1.96,7.18
           C 1.96,7.18 14.10,7.18 14.10,7.18
             14.05,6.79 13.96,6.42 13.84,6.05
             13.84,6.05 2.22,6.05 2.22,6.05
             2.10,6.42 2.01,6.79 1.96,7.18
             1.96,7.18 1.96,7.18 1.96,7.18 Z" />
</svg>
