<svg xmlns="http://www.w3.org/2000/svg" viewBox="0 0 841.89 595.28">
<rect height="371.18799" width="595.28003" stroke="#e40080" y="113.03799" x="123" stroke-width=".5" fill="rgba(0,0,0,.1)"/>
<path d="m532.145 298.434v-.009c-.01-61.304-49.887-111.171-111.196-111.171-61.304 0-111.185 49.878-111.185 111.189.012 61.294 49.888 111.166 111.188 111.166 61.305 0 111.182-49.872 111.192-111.166.001-.003.001-.005.001-.009zm-111.192 85.709c-27.984 0-52.879-13.486-68.535-34.298h30.491l28.382 16.164c2.885 1.48 6.268 2.341 9.896 2.341 3.937 0 7.597-1.007 10.634-2.735 0 0 .002.01.006.025l28.545-15.795h29.119c-15.655 20.811-40.548 34.298-68.538 34.298zm81.258-58.477h-162.516c-1.71-5.087-2.953-10.382-3.681-15.848h169.88c-.73 5.466-1.972 10.761-3.683 15.848zm-81.262-112.946c27.993 0 52.885 13.482 68.542 34.296h-30.491l-28.379-16.161c-2.889-1.481-6.27-2.345-9.897-2.345-3.939 0-7.601 1.008-10.639 2.735 0 0-.004-.01-.008-.028l-28.54 15.798h-29.119c15.653-20.813 40.548-34.295 68.531-34.295zm-81.254 58.476h162.516c1.709 5.089 2.953 10.386 3.684 15.848h-169.882c.728-5.462 1.971-10.759 3.682-15.848z" stroke="#e40080" stroke-width=".3" fill="#fff"/>
<g stroke="#e40080" fill="none">
<g stroke-width=".5">
<polyline points="437.601 77.975 718.205 78.29 718.205 111.623"/>
<polyline points="123.04 110.956 123.04 77.623 403.092 77.937"/>
<polyline points="100.565 287.206 100.762 112.19 121.553 112.19"/>
<polyline points="121.137 483.399 100.347 483.399 100.543 308.73"/>
<path d="m122.985 503.215"/>
<line y2="503.215" y1="89.968002" x2="321.40701" x1="321.40701"/>
<line y2="503.215" y1="89.968002" x2="519.828" x1="519.828"/>
<path d="m718.251 503.215"/>
<path d="m718.251 89.968"/>
<line y2="298.63199" x2="420.64001" y1="298.63199" x1="114"/>
</g>
<polyline transform="matrix(.51090865 0 0 1.0004526 379.19608 -.13501385)" points="304.556 187.062 775.131 187.062 775.131 280.091" stroke-width=".69935894"/>
<line stroke-width=".49999997" y2="261.2312" x2="753.05396" y1="261.2312" x1="627.20868"/>
<line stroke-width=".49999997" y2="335.44681" x2="753.05396" y1="335.44681" x1="627.20868"/>
<polyline transform="matrix(.51090865 0 0 1.0004526 379.19608 -.13501385)" points="304.556 409.617 775.131 409.617 775.131 313.09" stroke-width=".69935894"/>
</g>
<path d="m532.145 298.434v-.009c-.01-61.304-49.887-111.171-111.196-111.171-61.304 0-111.185 49.878-111.185 111.189.012 61.294 49.888 111.166 111.188 111.166 61.305 0 111.182-49.872 111.192-111.166.0010-.003.0010-.005.0010-.009zm-111.192 85.709c-27.984 0-52.879-13.486-68.535-34.298h30.491l28.382 16.164c2.885 1.48 6.268 2.341 9.896 2.341 3.937 0 7.597-1.007 10.634-2.735 0 0 .002.01.006.025l28.545-15.795h29.119c-15.655 20.811-40.548 34.298-68.538 34.298zm81.258-58.477h-162.516c-1.71-5.087-2.953-10.382-3.681-15.848h169.88c-.73 5.466-1.972 10.761-3.683 15.848zm-81.262-112.946c27.993 0 52.885 13.482 68.542 34.296h-30.491l-28.379-16.161c-2.889-1.481-6.27-2.345-9.897-2.345-3.939 0-7.601 1.008-10.639 2.735 0 0-.004-.01-.008-.028l-28.54 15.798h-29.119c15.653-20.813 40.548-34.295 68.531-34.295zm-81.254 58.476h162.516c1.709 5.089 2.953 10.386 3.684 15.848h-169.882c.728-5.462 1.971-10.759 3.682-15.848z" stroke="#e40080" stroke-width=".5" fill="#fff"/>
<g stroke="#e40080" stroke-width=".5" fill="none">
<line y2="323.39182" x2="246.59613" y1="177.41949" x1="505.05215"/>
<line y2="298.8414" x2="551.21808" y1="177.52193" x1="336.41367"/>
<rect height="222.25142" width="222.25252" y="187.22559" x="309.81036"/>
<line y2="309.94373" x2="627.8418" y1="309.94373" x1="291.10568"/>
<line y2="286.88882" x2="627.8418" y1="286.88882" x1="291.10568"/>
<line y2="271.35812" x2="627.8418" y1="271.35812" x1="291.10568"/>
<line y2="247.0896" x2="627.8418" y1="247.0896" x1="291.10568"/>
<line y2="349.98633" x2="627.8418" y1="349.98633" x1="291.10568"/>
<line y2="325.71893" x2="627.8418" y1="325.71893" x1="291.10568"/>
<line y2="273.70612" x2="246.4651" y1="418.94165" x1="505.05215"/>
<line y2="298.75549" x2="551.08698" y1="419.12668" x1="336.49515"/>
<line y2="409.35699" x2="420.91739" y1="187.23221" x1="420.91739"/>
</g>
<g fill="#e40080">
<polygon fill-opacity=".0627451" transform="matrix(1.1013122,0,0,1.1013122,-42.672303,8.353751)" stroke="#e40080" points="302.957 263.663 421.094 197.003 421.094 329.752" stroke-width=".45400387"/>
<g>
<path d="m421.745 75.217c1.496.255 2.771 1.462 2.771 3.298 0 2.022-1.462 3.791-4.318 3.791-1.275 0-2.431-.408-3.009-.816l.425-1.088c.459.306 1.479.765 2.601.765 2.142 0 2.839-1.496 2.839-2.668 0-1.87-1.581-2.72-3.247-2.72h-.833v-1.054h.833c1.224 0 2.804-.765 2.804-2.363 0-1.104-.663-2.057-2.192-2.057-.935 0-1.819.459-2.329.833l-.425-1.037c.612-.476 1.802-.952 3.026-.952 2.329 0 3.366 1.479 3.366 3.009 0 1.309-.833 2.481-2.312 3.009v.05z"/>
<path d="m764.605 295.257c1.496.255 2.771 1.462 2.771 3.298 0 2.022-1.462 3.791-4.318 3.791-1.274 0-2.43-.408-3.008-.815l.425-1.088c.459.305 1.479.764 2.601.764 2.142 0 2.839-1.495 2.839-2.668 0-1.87-1.581-2.72-3.247-2.72h-.832v-1.054h.832c1.225 0 2.805-.765 2.805-2.363 0-1.104-.662-2.057-2.192-2.057-.935 0-1.819.459-2.329.833l-.425-1.037c.612-.476 1.802-.952 3.026-.952 2.328 0 3.365 1.479 3.365 3.009 0 1.309-.833 2.481-2.312 3.009v.05z"/>
<path d="m771.44 302.907h-1.14l5.389-13.922h1.174l-5.423 13.922z"/>
<path d="m786.416 289.41v1.173h-4.572l-.527 3.604c.272-.034.545-.068.986-.068 2.261 0 4.283 1.343 4.283 3.909 0 2.516-1.869 4.318-4.385 4.318-1.275 0-2.346-.374-2.924-.748l.408-1.104c.476.322 1.41.713 2.516.713 1.598 0 2.975-1.172 2.957-3.008 0-1.75-1.121-2.975-3.502-2.975-.68 0-1.206.051-1.631.119l.799-5.933h5.592z"/>
<path d="m103.777 304.107h-7.53v-.866l1.241-1.31c3.026-3.06 4.556-4.913 4.556-6.986 0-1.36-.595-2.618-2.431-2.618-1.02 0-1.938.561-2.55 1.054l-.476-.986c.782-.697 1.938-1.241 3.298-1.241 2.566 0 3.586 1.87 3.586 3.621 0 2.397-1.683 4.437-4.317 7.089l-1.003 1.053v.035h5.626v1.155z"/>
<path d="m616.98397 260.67209c.77422.13215 1.43501.7577 1.43501 1.70813 0 1.04845-.7577 1.96364-2.23566 1.96364-.66079 0-1.25991-.21035-1.55836-.4229l.21916-.56388c.23788.15859.76651.39648 1.34801.39648 1.11012 0 1.47025-.77533 1.47025-1.38215 0-.96805-.81828-1.40858-1.68171-1.40858h-.43171v-.54625h.43171c.63436 0 1.45263-.39647 1.45263-1.22356 0-.57268-.3436-1.06497-1.13545-1.06497-.48347 0-.94162.23789-1.20593.43172l-.22027-.53744c.31718-.2467.93392-.49339 1.56717-.49339 1.20704 0 1.74338.76651 1.74338 1.55946 0 .67841-.43172 1.28523-1.19713 1.55836v.0253z"/>
<path d="m618.55114 282.96154h-3.90085v-.44933l.64317-.67841c1.56716-1.58479 2.36011-2.54513 2.36011-3.61891 0-.70484-.30727-1.35572-1.2599-1.35572-.52753 0-1.0033.29075-1.32048.54625l-.24669-.5099c.40528-.36124 1.00329-.64317 1.70813-.64317 1.33039 0 1.85902.96915 1.85902 1.87553 0 1.24118-.87224 2.29844-2.23677 3.67178l-.51982.54625v.0176h2.91408v.59801z"/>
<path d="m618.55114 321.50747h-3.90085v-.44934l.64317-.6784c1.56716-1.58479 2.36011-2.54514 2.36011-3.61892 0-.70484-.30727-1.35571-1.2599-1.35571-.52753 0-1.0033.29075-1.32048.54625l-.24669-.50991c.40528-.36123 1.00329-.64316 1.70813-.64316 1.33039 0 1.85902.96915 1.85902 1.87553 0 1.24118-.87224 2.29844-2.23677 3.67178l-.51982.54625v.0176h2.91408v.59801z"/>
<path d="m616.98397 298.1167c.77422.13216 1.43501.7577 1.43501 1.70814 0 1.04844-.7577 1.96363-2.23566 1.96363-.66079 0-1.25991-.21035-1.55836-.4229l.21916-.56387c.23788.15859.76651.39647 1.34801.39647 1.11012 0 1.47025-.77532 1.47025-1.38215 0-.96805-.81828-1.40857-1.68171-1.40857h-.43171v-.54625h.43171c.63436 0 1.45263-.39648 1.45263-1.22356 0-.57268-.3436-1.06497-1.13545-1.06497-.48347 0-.94162.23788-1.20593.43171l-.22027-.53744c.31718-.24669.93392-.49339 1.56717-.49339 1.20704 0 1.74338.76652 1.74338 1.55946 0 .67841-.43172 1.28523-1.19713 1.55836v.0253z"/>
<path d="m616.98397 336.99192c.77422.13216 1.43501.7577 1.43501 1.70924 0 1.04734-.7577 1.96253-2.23566 1.96253-.66079 0-1.25991-.21035-1.55836-.4229l.21916-.56387c.23788.15969.76651.39537 1.34801.39537 1.11012 0 1.47025-.77422 1.47025-1.38215 0-.96915-.81828-1.40858-1.68171-1.40858h-.43171v-.54625h.43171c.63436 0 1.45263-.39647 1.45263-1.22355 0-.57269-.3436-1.06497-1.13545-1.06497-.48347 0-.94162.23788-1.20593.43171l-.22027-.53744c.31718-.24669.93392-.49339 1.56717-.49339 1.20704 0 1.74338.76652 1.74338 1.55946 0 .67841-.43172 1.28523-1.19713 1.55836v.0264z"/>
<path d="m424.95929 301.78847c-.62554-.81937-1.30395-2.09579-1.30395-4.04181 0-1.96364.6696-3.24006 1.30395-4.07706h.59802c-.73128.97687-1.2588 2.27091-1.2588 4.08587 0 1.76981.54625 3.03742 1.2588 4.033h-.59802z"/>
<path d="m429.61124 299.43717c0 .39648.009.81057.0705 1.14537h-.6696l-.0705-.61674h-.0264c-.2467.37885-.74008.72136-1.41739.72136-.91629 0-1.39977-.66849-1.39977-1.36452 0-1.15308 1.0044-1.77862 2.78191-1.76981 0-.40528 0-1.32048-1.0914-1.32048-.41409 0-.8458.11454-1.17069.34361l-.17621-.50219c.38766-.25551.924-.40529 1.46144-.40529 1.35572 0 1.70814.96035 1.70814 1.91078v1.85791zm-.72246-1.3469c-.90749 0-2.04294.13216-2.04294 1.14536 0 .61674.38766.88876.82709.88876.71365 0 1.21585-.54625 1.21585-1.12664v-.90748z"/>
<path d="m431.08369 293.6696c.62555.81828 1.29404 2.0958 1.29404 4.05944 0 1.95483-.66078 3.21363-1.29404 4.05943h-.59801c.71255-.97686 1.2599-2.2709 1.2599-4.06824 0-1.78743-.53744-3.05504-1.2599-4.05063h.59801z"/>
<path d="m350.16686 259.9254c-.62555-.81938-1.30395-2.0958-1.30395-4.04182 0-1.96364.66959-3.24006 1.30395-4.07706h.59801c-.73127.97687-1.2588 2.27091-1.2588 4.08587 0 1.76981.54625 3.03742 1.2588 4.03301h-.59801z"/>
<path d="m354.8177 257.57409c0 .39648.009.81057.0705 1.14537h-.6696l-.0705-.61674h-.0264c-.24669.37886-.74008.72136-1.41739.72136-.91629 0-1.39976-.66849-1.39976-1.36452 0-1.15308 1.00439-1.77862 2.78191-1.76981 0-.40528 0-1.32047-1.0914-1.32047-.41409 0-.84581.11453-1.1707.3436l-.17621-.50219c.38767-.25551.92401-.40529 1.46145-.40529 1.35571 0 1.70813.96035 1.70813 1.91078v1.85791zm-.72136-1.3469c-.90748 0-2.04293.13216-2.04293 1.14536 0 .61674.38766.88876.82708.88876.71365 0 1.21585-.54625 1.21585-1.12664v-.90748z"/>
<path d="m356.29126 251.80762c.62554.81828 1.29404 2.0958 1.29404 4.05944 0 1.95483-.66079 3.21363-1.29404 4.05944h-.59802c.71255-.97687 1.25991-2.27091 1.25991-4.06825 0-1.78743-.53744-3.05504-1.25991-4.05063h.59802z"/>
<path d="m350.16686 345.62511c-.62555-.81828-1.30395-2.0947-1.30395-4.04182 0-1.96254.66959-3.23896 1.30395-4.07596h.59801c-.73127.97687-1.2588 2.27091-1.2588 4.08587 0 1.76871.54625 3.03852 1.2588 4.03191h-.59801z"/>
<path d="m354.8177 343.2738c0 .39648.009.81057.0705 1.14537h-.6696l-.0705-.61674h-.0264c-.24669.37886-.74008.72136-1.41739.72136-.91629 0-1.39976-.66849-1.39976-1.36452 0-1.15308 1.00439-1.77862 2.78191-1.76981 0-.40418 0-1.32047-1.0914-1.32047-.41409 0-.84581.11453-1.1707.34361l-.17621-.5022c.38767-.25441.92401-.40529 1.46145-.40529 1.35571 0 1.70813.96035 1.70813 1.91078v1.85791zm-.72136-1.3458c-.90748 0-2.04293.13216-2.04293 1.14426 0 .61784.38766.88986.82708.88986.71365 0 1.21585-.54515 1.21585-1.12664v-.90748z"/>
<path d="m356.29126 337.50733c.62554.81828 1.29404 2.0947 1.29404 4.05944 0 1.95483-.66079 3.21363-1.29404 4.05944h-.59802c.71255-.97687 1.25991-2.27091 1.25991-4.06715 0-1.78743-.53744-3.05504-1.25991-4.05063h.59802z"/>
</g>
</g>
<g stroke="#e40080" stroke-width=".30000001" fill="none">
<circle cy="298.38434" cx="420.93832" r="85.842888"/>
<path d="m532.03649 298.38543c0 61.35741-49.73747 111.09818-111.09708 111.09818-61.36182 0-111.09928-49.74077-111.09928-111.09818 0-61.36071 49.73746-111.09928 111.09928-111.09928 61.35961 0 111.09708 49.73857 111.09708 111.09928z"/>
<circle cy="249.6138" cx="421.14426" r="21.411713"/>
<circle cy="346.56342" cx="421.07159" r="21.412815"/>
</g>
</svg>
