<svg
  xmlns="http://www.w3.org/2000/svg"
  viewBox="0 0 400 300">
  <path style="fill:#008;stroke:none"
        d="M 285.89,149.56
           C 285.89,149.56 285.89,149.55 285.89,149.55
             285.88,93.97 240.64,48.76 185.02,48.76
             129.40,48.76 84.15,93.99 84.15,149.57
             84.15,149.57 84.15,149.57 84.15,149.57
             84.16,205.15 129.41,250.36 185.02,250.36
             240.64,250.36 285.88,205.15 285.89,149.57
             285.89,149.57 285.89,149.57 285.89,149.57
             285.89,149.57 285.89,149.56 285.89,149.56 Z
           M 247.20,196.18
           C 233.00,215.04 210.41,227.27 185.02,227.27
             159.63,227.27 137.05,215.04 122.85,196.18
             122.85,196.18 150.51,196.18 150.51,196.18
             150.51,196.18 176.25,210.83 176.25,210.83
             178.87,212.17 181.94,212.95 185.23,212.95
             188.81,212.95 192.13,212.04 194.88,210.48
             194.88,210.48 194.88,210.48 194.89,210.50
             194.89,210.50 220.78,196.18 220.78,196.18
             220.78,196.18 247.20,196.18 247.20,196.18
             247.20,196.18 247.20,196.18 247.20,196.18 Z
           M 258.74,174.25
           C 258.74,174.25 111.31,174.25 111.31,174.25
             109.76,169.64 108.63,164.84 107.96,159.89
             107.96,159.89 262.08,159.89 262.08,159.89
             261.42,164.84 260.29,169.64 258.74,174.25 Z
           M 122.85,102.94
           C 137.05,84.08 159.63,71.85 185.02,71.85
             210.41,71.85 233.00,84.08 247.20,102.94
             247.20,102.94 219.54,102.94 219.54,102.94
             219.54,102.94 193.79,88.29 193.79,88.29
             191.17,86.95 188.10,86.17 184.81,86.17
             181.24,86.17 177.92,87.08 175.16,88.65
             175.16,88.65 175.16,88.64 175.16,88.62
             175.16,88.62 149.26,102.94 149.26,102.94
             149.26,102.94 122.85,102.94 122.85,102.94
             122.85,102.94 122.85,102.94 122.85,102.94 Z
           M 111.31,124.87
           C 111.31,124.87 258.74,124.87 258.74,124.87
             260.29,129.48 261.42,134.28 262.08,139.24
             262.08,139.24 107.96,139.24 107.96,139.24
             108.63,134.28 109.75,129.48 111.31,124.87 Z" />
  <path d="M 204.58,193.32
           C 204.58,204.06 195.88,212.76 185.14,212.76
             174.40,212.76 165.69,204.06 165.69,193.32
             165.69,182.59 174.40,173.89 185.14,173.89
             195.88,173.89 204.58,182.59 204.58,193.32 Z" />
  <path d="M 185.20,85.90
           C 195.94,85.90 204.65,94.60 204.65,105.33
             204.65,116.07 195.94,124.77 185.20,124.77
             174.47,124.77 165.76,116.07 165.76,105.33
             165.76,94.60 174.47,85.90 185.20,85.90
             185.20,85.90 185.20,85.90 185.20,85.90 Z" />
  <path d="M 67.11,196.43
           C 67.11,196.43 372.91,196.43 372.91,196.43" />
  <path d="M 67.11,103.04
           C 67.11,103.04 372.91,103.04 372.91,103.04" />
  <path d="M 67.11,174.40
           C 67.11,174.40 372.91,174.40 372.91,174.40" />
  <path d="M 67.11,125.07
           C 67.11,125.07 372.91,125.07 372.91,125.07" />
  <path d="M 67.11,160.09
           C 67.11,160.09 372.91,160.09 372.91,160.09" />
  <path d="M 67.11,139.16
           C 67.11,139.16 372.91,139.16 372.91,139.16" />
  <path d="M 108.33,259.18
           C 108.33,259.18 303.21,149.93 303.21,149.93" />
  <path d="M 108.26,39.90
           C 108.26,39.90 303.33,150.01 303.33,150.01" />
  <path d="M 261.40,259.01
           C 261.40,259.01 26.57,127.20 26.57,127.20" />
  <path d="M 261.40,39.81
           C 261.40,39.81 26.69,172.29 26.69,172.29" />
  <path d="M 185.00,48.72
           C 185.00,48.72 185.00,250.31 185.00,250.31" />
  <path d="M 262.97,149.60
           C 262.97,192.62 228.07,227.51 185.02,227.51
             141.96,227.51 107.06,192.62 107.06,149.60
             107.06,106.57 141.96,71.69 185.02,71.69
             228.07,71.69 262.97,106.57 262.97,149.60 Z" />
  <path d="M 285.91,149.60
           C 285.91,205.28 240.74,250.43 185.02,250.43
             129.29,250.43 84.13,205.28 84.13,149.60
             84.13,93.91 129.29,48.77 185.02,48.77
             240.74,48.77 285.91,93.91 285.91,149.60 Z" />
  <path d="M 285.93,48.71
           C 285.93,48.71 285.93,250.42 285.93,250.42
             285.93,250.42 84.10,250.42 84.10,250.42
             84.10,250.42 84.10,48.71 84.10,48.71
             84.10,48.71 285.93,48.71 285.93,48.71 Z" />
  <style>
    path {
      fill: none;
      stroke: #f0f;
      stroke-dasharray: 2000;
      stroke-dashoffset: 0;
      stroke-width: 1;
      -webkit-animation: hello 3s ease-in forwards;
      animation: hello 3s ease-in forwards;
    }
    @-webkit-keyframes hello {
      0% {
        stroke-dashoffset: 2000;
        fill:transparent;
      }
      50% {
        stroke-dashoffset: 0;
        fill:transparent;
      }
      100% {
        stroke:transparent;
      }
    }
    @keyframes hello {
      0% {
        stroke-dashoffset: 2000;
        fill:transparent;
      }
      50% {
        stroke-dashoffset: 0;
        fill:transparent;
      }
      100% {
        stroke:transparent;
      }
    }
  </style>
</svg>