<svg
  xmlns="http://www.w3.org/2000/svg"
  viewBox="0 0 842 595">
  <path
    style="fill:#008;stroke:none"
    d="m 521.89,297.57464 c 0,0 0,0 0,0 -0.01,55.58 -45.25,100.79 -100.87,100.79 -55.61,0 -100.86,-45.21 -100.87,-100.79 0,0 0,0 0,0 0,-55.58 45.25,-100.81 100.87,-100.81 55.62,0 100.86,45.21 100.87,100.79 0,0 0,0.01 0,0.01 0,0 0,0.01 0,0.01 z m -38.69,46.61 c 0,0 -26.42,0 -26.42,0 0,0 -25.89,14.32 -25.89,14.32 -0.01,-0.02 -0.01,-0.02 -0.01,-0.02 -2.75,1.56 -6.07,2.47 -9.65,2.47 -3.29,0 -6.36,-0.78 -8.98,-2.12 0,0 -25.74,-14.65 -25.74,-14.65 0,0 -27.66,0 -27.66,0 14.2,18.86 36.78,31.09 62.17,31.09 25.39,0 47.98,-12.23 62.18,-31.09 z m 14.88,-36.29 c 0,0 -154.12,0 -154.12,0 0.67,4.95 1.8,9.75 3.35,14.36 0,0 147.43,0 147.43,0 1.55,-4.61 2.68,-9.41 3.34,-14.36 z m -139.23,-56.95 c 0,0 26.41,0 26.41,0 0,0 25.9,-14.32 25.9,-14.32 0,0.02 0,0.03 0,0.03 2.76,-1.57 6.08,-2.48 9.65,-2.48 3.29,0 6.36,0.78 8.98,2.12 0,0 25.75,14.65 25.75,14.65 0,0 27.66,0 27.66,0 -14.2,-18.86 -36.79,-31.09 -62.18,-31.09 -25.39,0 -47.97,12.23 -62.17,31.09 z m -14.89,36.3 c 0,0 154.12,0 154.12,0 -0.66,-4.96 -1.79,-9.76 -3.34,-14.37 0,0 -147.43,0 -147.43,0 -1.56,4.61 -2.68,9.41 -3.35,14.37 z" />
  <path
    d="m 421.14,321.89464 c -10.74,0 -19.45,8.7 -19.45,19.43 0,10.74 8.71,19.44 19.45,19.44 10.74,0 19.44,-8.7 19.44,-19.44 0,-10.73 -8.7,-19.43 -19.44,-19.43 z" />
  <path
    d="m 421.2,233.90464 c -10.73,0 -19.44,8.7 -19.44,19.43 0,10.74 8.71,19.44 19.44,19.44 10.74,0 19.45,-8.7 19.45,-19.44 0,-10.73 -8.71,-19.43 -19.45,-19.43 z" />
  <path
    d="m 608.91,344.43464 c 0,0 -305.8,0 -305.8,0" />
  <path
    d="m 608.91,251.04464 c 0,0 -305.8,0 -305.8,0" />
  <path
    d="m 608.91,322.40464 c 0,0 -305.8,0 -305.8,0" />
  <path
    d="m 608.91,273.07464 c 0,0 -305.8,0 -305.8,0" />
  <path
    d="m 608.91,308.09464 c 0,0 -305.8,0 -305.8,0" />
  <path
    d="m 608.91,287.16464 c 0,0 -305.8,0 -305.8,0" />
  <path
    d="m 539.21,297.93464 c 0,0 -194.88,109.25 -194.88,109.25" />
  <path
    d="m 539.33,298.01464 c 0,0 -195.07,-110.11 -195.07,-110.11" />
  <path
    d="m 262.57,275.20464 c 0,0 234.83,131.81 234.83,131.81" />
  <path
    d="m 262.69,320.29464 c 0,0 234.71,-132.48 234.71,-132.48" />
  <path
    d="m 421,398.31464 c 0,0 0,-201.59 0,-201.59" />
  <path
    d="m 421.02,219.69464 c -43.06,0 -77.96,34.88 -77.96,77.91 0,43.02 34.9,77.91 77.96,77.91 43.05,0 77.95,-34.89 77.95,-77.91 0,-43.03 -34.9,-77.91 -77.95,-77.91 z" />
  <path
    d="m 421.02,196.77464 c -55.73,0 -100.89,45.14 -100.89,100.83 0,55.68 45.16,100.83 100.89,100.83 55.72,0 100.89,-45.15 100.89,-100.83 0,-55.69 -45.17,-100.83 -100.89,-100.83 z" />
  <path
    d="m 320.1,196.71464 c 0,0 0,201.71 0,201.71 0,0 201.83,0 201.83,0 0,0 0,-201.71 0,-201.71 0,0 -201.83,0 -201.83,0 z" />
  <style>
    path {
      fill: none;
      stroke: #f0f;
      stroke-dasharray: 2000;
      stroke-dashoffset: 0;
      stroke-width: 1;
      -webkit-animation: hello 3s ease-in forwards;
      animation: hello 3s ease-in forwards;
    }
    @-webkit-keyframes hello {
      0% {
        stroke-dashoffset: 2000;
        fill:transparent;
      }
      50% {
        stroke-dashoffset: 0;
        fill:transparent;
      }
      100% {
        stroke:transparent;
      }
    }
    @keyframes hello {
      0% {
        stroke-dashoffset: 2000;
        fill:transparent;
      }
      50% {
        stroke-dashoffset: 0;
        fill:transparent;
      }
      100% {
        stroke:transparent;
      }
    }
  </style>
</svg>