<svg xmlns="http://www.w3.org/2000/svg"
     width="40" height="40"
     viewBox="0 0 128 128">
  <path d="M 128.08,64.16
           C 128.08,64.16 128.08,64.16 128.08,64.16
             128.08,99.28 99.44,127.92 64.24,127.92
             29.12,127.92 0.48,99.28 0.48,64.16
             0.48,29.04 29.12,0.40 64.24,0.40
             99.44,0.40 128.08,29.04 128.08,64.16
             128.08,64.16 128.08,64.16 128.08,64.16
             128.08,64.16 128.08,64.16 128.08,64.16 Z
           M 64.24,113.28
           C 80.32,113.28 94.64,105.60 103.60,93.60
             103.60,93.60 86.88,93.60 86.88,93.60
             86.88,93.60 70.48,102.72 70.48,102.72
             70.48,102.72 70.48,102.64 70.48,102.64
             68.80,103.68 66.64,104.24 64.40,104.24
             62.32,104.24 60.40,103.76 58.72,102.88
             58.72,102.88 42.48,93.60 42.48,93.60
             42.48,93.60 24.96,93.60 24.96,93.60
             33.92,105.60 48.24,113.28 64.24,113.28
             64.24,113.28 64.24,113.28 64.24,113.28 Z
           M 112.96,70.72
           C 112.96,70.72 15.52,70.72 15.52,70.72
             16.00,73.84 16.64,76.88 17.68,79.76
             17.68,79.76 110.88,79.76 110.88,79.76
             111.84,76.88 112.56,73.84 112.96,70.72
             112.96,70.72 112.96,70.72 112.96,70.72 Z
           M 64.24,15.04
           C 48.24,15.04 33.92,22.80 24.96,34.72
             24.96,34.72 41.68,34.72 41.68,34.72
             41.68,34.72 58.00,25.60 58.00,25.60
             58.00,25.68 58.00,25.68 58.00,25.68
             59.76,24.64 61.92,24.08 64.16,24.08
             66.24,24.08 68.16,24.56 69.84,25.44
             69.84,25.44 86.08,34.72 86.08,34.72
             86.08,34.72 103.60,34.72 103.60,34.72
             94.64,22.80 80.32,15.04 64.24,15.04
             64.24,15.04 64.24,15.04 64.24,15.04 Z
           M 17.68,48.56
           C 16.64,51.44 16.00,54.48 15.52,57.60
             15.52,57.60 113.04,57.60 113.04,57.60
             112.56,54.48 111.84,51.44 110.88,48.56
             110.88,48.56 17.68,48.56 17.68,48.56
             17.68,48.56 17.68,48.56 17.68,48.56 Z" />
  <style>
    path {
      fill: #008;
      @media (prefers-color-scheme: dark){
        fill: #fff;
      }
    }
  </style>
</svg>
