<svg xmlns="http://www.w3.org/2000/svg"
     viewBox="0 0 800 800">
  <path fill="none" stroke="#fb0" stroke-width="100"
        d="M 800.00,400.00
           C 785.07,400.04 767.37,401.32 749.98,403.14
             657.70,414.74 571.19,458.19 507.09,527.00
             471.83,564.84 443.67,610.62 425.42,659.00
             410.06,701.08 400.37,752.59 400.00,800.00
             399.74,751.29 391.44,707.84 374.58,659.00
             356.33,610.62 328.17,564.84 292.91,527.00
             228.81,458.19 142.30,414.74 50.24,403.21
             50.38,394.46 50.40,385.71 51.37,377.00
             54.61,329.87 65.97,286.56 86.72,244.00
             128.93,157.41 207.01,93.45 298.46,65.02
             353.78,48.42 411.62,46.44 470.46,57.00
             581.70,79.24 674.11,154.87 719.65,255.84" />
  <style>
    path {
      stroke-dasharray: 3000;
      stroke-dashoffset: 0;
      -webkit-animation: path 3s ease-in forwards;
      animation: path 3s ease-in forwards;
    }
    @-webkit-keyframes path {
      0% {
        stroke-dashoffset: 3000;
      }
      100% {
        stroke-dashoffset: 0;
      }
    }
    @keyframes path {
      0% {
        stroke-dashoffset: 3000;
      }
      100% {
        stroke-dashoffset: 0;
      }
    }
  </style>
</svg>
