<svg xmlns="http://www.w3.org/2000/svg"
     viewBox="0 0 1600 1600">
  <path fill="none" stroke="#fb0" stroke-width="100"
        stroke-linecap="round" stroke-linejoin="round"
        d="M 1200.00,800.08
           C 1200.21,767.75 1196.06,737.67 1188.37,704.00
             1152.13,559.04 1040.96,447.87 896.00,411.63
             875.21,406.50 848.86,401.69 824.00,401.04
             824.00,401.04 813.00,400.21 813.00,400.21
             813.00,400.21 813.00,400.21 813.00,400.21
             787.12,400.21 766.22,400.17 741.00,404.27
             702.45,410.12 658.22,423.33 620.00,442.75
             537.37,484.07 473.79,551.18 435.31,635.00
             416.25,676.51 405.49,721.67 401.04,767.00
             401.01,776.04 399.74,789.53 400.00,799.67
             408.03,799.32 416.00,799.90 424.00,800.50
             448.86,801.15 475.21,805.96 496.00,811.09
             640.96,847.33 752.13,958.50 788.37,1103.46
             793.86,1137.88 800.13,1171.06 800.00,1199.46
             799.79,1167.16 803.95,1137.10 811.63,1103.46
             843.44,976.20 933.00,874.99 1052.48,827.64" />
  <style>
    path {
      stroke-dasharray: 3000;
      stroke-dashoffset: 0;
      -webkit-animation: path 3s ease-in infinite;
      animation: path 3s ease-in infinite;
    }
    @-webkit-keyframes path {
      0% {
        stroke-dashoffset: 3000;
      }
      100% {
        stroke-dashoffset: 0;
      }
    }
    @keyframes path {
      0% {
        stroke-dashoffset: 3000;
      }
      100% {
        stroke-dashoffset: 0;
      }
    }
  </style>
</svg>
