<svg xmlns="http://www.w3.org/2000/svg"
     height="40"
     viewBox="0 0 210 48">
  <path fill="#333"
        d="M 16.38,15.27
           C 16.31,14.43 16.48,13.77 16.91,13.42
             16.91,13.38 16.98,13.35 17.01,13.35
             17.01,13.35 17.15,13.28 17.15,13.28
             17.53,13.03 18.17,12.86 18.97,12.79
             20.20,12.72 21.73,12.68 23.48,12.68
             25.27,12.68 27.41,12.82 29.78,13.00
             30.34,13.00 30.73,13.17 30.87,13.35
             31.01,13.56 31.05,13.91 30.98,14.29
             30.91,14.64 30.66,14.96 30.31,15.17
             30.10,15.27 29.65,15.27 29.05,15.13
             28.38,14.99 27.65,14.85 26.84,14.78
             26.04,14.68 24.99,14.61 23.80,14.61
             22.61,14.61 21.63,14.68 20.90,14.75
             20.20,14.78 19.53,14.92 18.97,15.03
             18.87,15.03 18.73,15.07 18.62,15.07
             18.62,15.07 18.62,15.63 18.62,15.63
             18.48,18.07 18.34,20.87 18.34,23.95
             18.34,27.03 18.34,29.17 18.38,30.22
             18.38,30.22 18.38,31.52 18.38,31.52
             18.38,31.52 20.16,31.34 20.16,31.34
             21.91,31.17 23.77,31.09 25.66,31.13
             27.55,31.20 29.93,31.45 32.80,31.79
             33.36,31.87 33.46,32.22 33.11,32.74
             32.76,33.30 32.34,33.82 31.88,34.24
             31.43,34.67 30.80,34.70 30.10,34.38
             29.30,34.03 28.53,33.75 27.83,33.62
             27.16,33.44 26.18,33.30 24.92,33.23
             23.70,33.16 22.47,33.19 21.32,33.30
             20.16,33.40 19.22,33.58 18.69,33.75
             18.13,33.86 17.64,34.07 17.29,34.24
             16.42,34.67 15.75,34.63 15.30,34.11
             14.88,33.62 14.95,32.92 15.58,32.18
             15.75,31.93 16.00,31.76 16.21,31.69
             16.17,31.41 16.17,31.06 16.21,30.75
             16.35,27.81 16.38,24.66 16.38,21.43
             16.38,21.43 16.38,15.27 16.38,15.27 Z
           M 21.18,18.07
           C 21.18,17.37 21.28,16.85 21.49,16.57
             21.70,16.32 22.02,16.25 22.37,16.25
             22.72,16.25 23.10,16.32 23.35,16.36
             23.91,16.32 24.96,16.25 26.50,16.25
             27.27,16.18 27.90,16.25 28.35,16.50
             28.81,16.74 28.98,17.13 28.84,17.55
             28.73,17.93 28.70,18.35 28.70,18.70
             28.70,18.70 28.70,19.12 28.70,19.12
             28.70,19.55 28.59,20.03 28.38,20.46
             28.21,20.84 27.86,21.19 27.48,21.40
             27.06,21.61 26.57,21.65 26.04,21.54
             25.48,21.47 24.88,21.47 24.36,21.47
             23.83,21.47 23.45,21.54 23.28,21.61
             22.65,21.78 22.12,21.78 21.81,21.57
             21.49,21.37 21.28,20.63 21.21,19.37
             21.21,18.88 21.18,18.42 21.18,18.07 Z
           M 26.46,19.48
           C 26.57,19.40 26.63,19.16 26.63,18.74
             26.63,18.32 26.60,18.00 26.53,17.93
             26.39,17.83 25.80,17.80 24.82,17.80
             23.87,17.80 23.28,17.90 23.13,18.00
             23.07,18.07 23.00,18.35 23.00,18.77
             23.00,19.16 23.07,19.44 23.10,19.51
             23.17,19.58 23.56,19.62 24.18,19.58
             24.82,19.55 25.34,19.51 25.73,19.51
             26.15,19.51 26.39,19.51 26.46,19.48 Z
           M 19.25,25.18
           C 19.25,24.48 19.36,23.95 19.57,23.67
             19.78,23.47 20.13,23.36 20.44,23.40
             20.79,23.40 21.18,23.47 21.46,23.50
             21.67,23.47 22.12,23.40 22.82,23.36
             23.56,23.29 24.22,23.40 24.68,23.61
             25.10,23.85 25.27,24.23 25.13,24.66
             25.03,25.04 24.99,25.46 24.99,25.81
             24.99,25.81 24.99,26.90 24.99,26.90
             24.99,27.35 24.88,27.84 24.71,28.22
             24.53,28.65 24.18,29.00 23.77,29.20
             23.35,29.38 22.89,29.42 22.33,29.34
             22.33,29.34 21.73,29.34 21.73,29.34
             21.56,29.34 21.42,29.38 21.35,29.38
             20.72,29.56 20.23,29.56 19.88,29.38
             19.57,29.17 19.36,28.40 19.28,27.17
             19.28,26.37 19.25,25.67 19.25,25.18 Z
           M 21.70,27.35
           C 21.95,27.35 22.23,27.32 22.43,27.32
             22.61,27.32 22.75,27.28 22.78,27.28
             22.96,27.17 23.03,26.79 23.03,26.20
             23.03,25.57 22.96,25.15 22.86,25.04
             22.78,25.00 22.51,25.00 22.02,25.00
             21.56,25.00 21.28,25.07 21.21,25.11
             21.11,25.18 21.03,25.60 21.03,26.23
             21.03,26.82 21.11,27.21 21.18,27.32
             21.21,27.35 21.42,27.35 21.70,27.35 Z
           M 25.83,25.04
           C 25.83,24.34 25.93,23.82 26.15,23.53
             26.32,23.32 26.67,23.22 27.02,23.25
             27.37,23.25 27.72,23.32 28.00,23.36
             28.25,23.32 28.77,23.25 29.51,23.22
             30.28,23.15 30.91,23.25 31.36,23.50
             31.82,23.71 31.99,24.09 31.85,24.52
             31.75,24.93 31.71,25.32 31.71,25.67
             31.71,25.67 31.71,26.47 31.71,26.47
             31.71,26.93 31.61,27.42 31.40,27.84
             31.22,28.22 30.87,28.57 30.48,28.78
             30.07,29.00 29.58,29.03 29.05,28.92
             29.05,28.92 28.35,28.92 28.35,28.92
             28.14,28.92 27.97,29.00 27.90,29.00
             27.30,29.17 26.78,29.17 26.43,28.96
             26.15,28.75 25.93,27.98 25.87,26.75
             25.87,26.09 25.83,25.46 25.83,25.04 Z
           M 28.28,26.93
           C 28.63,26.93 28.91,26.90 29.12,26.90
             29.12,26.90 29.47,26.86 29.47,26.86
             29.61,26.79 29.68,26.47 29.68,25.92
             29.68,25.36 29.61,25.00 29.54,24.93
             29.47,24.87 29.16,24.87 28.67,24.87
             28.18,24.90 27.83,24.97 27.76,25.00
             27.68,25.04 27.65,25.39 27.65,25.95
             27.65,26.47 27.68,26.82 27.72,26.90
             27.76,26.93 27.97,26.93 28.28,26.93 Z
           M 2.10,28.19
           C 2.48,27.95 2.87,27.95 3.18,28.19
             3.50,28.43 3.71,28.75 3.74,29.07
             3.78,29.38 3.64,29.83 3.33,30.43
             3.33,30.43 2.38,32.42 2.38,32.42
             2.27,32.63 2.13,32.77 2.03,32.81
             1.89,32.81 1.78,32.74 1.78,32.57
             1.75,32.36 1.68,32.18 1.65,32.00
             1.51,31.06 1.47,30.15 1.51,29.31
             1.51,28.86 1.68,28.47 2.10,28.19 Z
           M 4.76,28.33
           C 5.11,28.02 5.46,27.95 5.81,28.15
             6.13,28.37 6.37,28.65 6.44,28.92
             6.51,29.20 6.44,29.59 6.23,30.15
             6.02,30.71 5.81,31.34 5.60,31.97
             5.53,32.18 5.43,32.32 5.32,32.36
             5.18,32.39 5.08,32.32 5.04,32.22
             5.04,32.22 4.83,31.65 4.83,31.65
             4.62,30.88 4.41,30.15 4.38,29.38
             4.30,29.00 4.41,28.61 4.76,28.33 Z
           M 11.80,23.57
           C 13.16,23.71 14.11,23.95 14.60,24.23
             15.19,24.76 15.47,25.28 15.40,25.81
             15.40,26.13 15.19,26.68 14.91,27.49
             14.60,28.22 14.42,29.24 14.35,30.40
             14.28,31.52 13.83,32.81 13.13,34.24
             12.53,35.33 11.87,35.92 11.20,35.92
             10.50,35.92 10.36,35.50 10.71,34.70
             12.04,31.48 12.78,29.07 12.78,27.56
             12.63,26.51 12.28,25.84 11.83,25.50
             11.69,25.36 11.17,25.22 10.26,25.18
             9.38,25.15 8.22,25.25 6.93,25.53
             5.63,25.81 4.69,26.16 4.27,26.47
             3.22,26.90 2.45,26.82 1.96,26.33
             1.47,25.81 1.72,25.11 2.66,24.38
             2.94,24.13 3.15,22.59 3.18,19.79
             3.18,17.02 3.18,14.78 3.12,13.17
             3.08,12.33 3.22,11.74 3.53,11.35
             3.88,10.97 4.27,10.79 4.58,10.83
             4.97,10.83 5.25,10.90 5.32,10.90
             5.95,10.90 7.25,10.90 9.07,10.87
             10.92,10.83 12.39,10.79 13.48,10.79
             13.83,10.79 14.21,11.00 14.53,11.42
             14.84,11.84 14.84,12.23 14.56,12.62
             14.25,13.00 13.55,13.17 12.60,13.14
             12.60,13.14 11.10,13.07 11.10,13.07
             10.99,13.52 10.92,14.26 10.92,15.17
             11.20,15.17 11.55,15.20 11.80,15.20
             12.98,15.17 13.72,15.27 14.00,15.55
             14.28,15.83 14.38,16.15 14.25,16.47
             14.14,16.82 13.65,17.02 12.88,17.02
             12.18,17.02 11.52,16.99 10.88,16.99
             10.88,16.99 10.88,19.27 10.88,19.27
             11.13,19.27 11.41,19.30 11.66,19.30
             12.85,19.27 13.58,19.37 13.86,19.65
             14.14,19.93 14.25,20.25 14.11,20.60
             14.00,20.91 13.51,21.12 12.74,21.12
             12.08,21.12 11.45,21.08 10.88,21.08
             10.88,22.34 10.96,23.18 10.99,23.53
             11.27,23.53 11.55,23.53 11.80,23.57 Z
           M 5.28,17.30
           C 5.22,17.90 5.14,18.63 5.14,19.37
             5.57,19.23 6.16,19.20 6.93,19.23
             6.93,19.23 8.78,19.23 8.78,19.23
             8.78,18.92 8.82,18.53 8.82,18.18
             8.82,17.76 8.78,17.34 8.78,16.99
             7.77,16.99 6.93,17.09 6.23,17.23
             5.84,17.30 5.53,17.30 5.28,17.30 Z
           M 5.00,21.37
           C 4.97,21.86 4.90,22.38 4.90,22.91
             4.97,23.71 5.43,24.06 6.16,23.92
             7.00,23.78 7.80,23.64 8.54,23.61
             8.54,23.53 8.58,23.40 8.61,23.32
             8.68,22.91 8.75,22.13 8.75,21.08
             7.77,21.08 6.93,21.19 6.23,21.33
             5.74,21.40 5.28,21.43 5.00,21.37 Z
           M 5.98,13.14
           C 5.60,13.38 5.39,14.02 5.46,14.92
             5.46,15.03 5.43,15.13 5.43,15.20
             5.81,15.13 6.30,15.13 6.93,15.13
             6.93,15.13 8.75,15.13 8.75,15.13
             8.75,14.12 8.72,13.38 8.68,13.03
             7.14,12.89 6.20,12.97 5.98,13.14 Z
           M 7.38,27.95
           C 7.70,27.67 8.05,27.59 8.40,27.77
             8.75,27.95 9.00,28.19 9.07,28.47
             9.13,28.68 9.07,29.10 8.93,29.59
             8.78,30.08 8.61,30.67 8.43,31.27
             8.40,31.48 8.29,31.62 8.19,31.69
             8.08,31.72 7.98,31.65 7.91,31.52
             7.91,31.52 7.67,30.99 7.67,30.99
             7.38,30.36 7.18,29.70 7.03,29.10
             6.97,28.68 7.07,28.26 7.38,27.95 Z
           M 9.91,27.45
           C 10.18,27.14 10.53,27.07 10.88,27.21
             11.23,27.35 11.48,27.56 11.58,27.84
             11.66,28.05 11.66,28.47 11.52,29.00
             11.52,29.00 11.13,30.75 11.13,30.75
             11.10,30.92 10.99,31.06 10.88,31.13
             10.82,31.17 10.68,31.09 10.61,30.95
             10.61,30.95 10.36,30.50 10.36,30.50
             10.08,29.83 9.80,29.17 9.63,28.54
             9.55,28.15 9.63,27.81 9.91,27.45 Z
           M 42.63,14.54
           C 43.16,15.07 43.33,15.48 43.12,15.73
             42.95,15.97 42.49,16.01 41.86,15.87
             41.23,15.73 40.53,15.59 39.83,15.48
             39.09,15.34 38.57,15.10 38.36,14.78
             38.15,14.43 38.15,14.02 38.36,13.67
             38.53,13.32 38.88,13.03 39.34,12.82
             39.76,12.62 40.22,12.58 40.60,12.72
             40.92,12.86 41.23,13.07 41.37,13.32
             41.68,13.67 42.14,14.12 42.63,14.54 Z
           M 42.63,18.77
           C 43.47,19.37 43.78,20.07 43.61,20.70
             43.58,21.08 43.05,21.68 42.14,22.38
             41.44,22.91 40.71,23.36 39.93,23.64
             40.28,23.88 40.74,24.31 41.23,24.80
             41.44,25.00 41.68,25.15 41.90,25.25
             42.53,25.46 42.95,25.77 43.08,26.13
             43.23,26.47 43.08,26.86 42.70,27.28
             42.35,27.91 41.93,28.40 41.51,28.82
             41.09,29.20 40.81,29.56 40.78,29.87
             40.74,30.57 41.06,30.85 41.83,30.75
             42.95,30.67 45.01,30.71 47.88,30.85
             50.78,30.95 53.90,31.34 57.16,31.87
             60.44,32.36 63.81,32.67 67.20,32.67
             68.14,32.67 68.63,32.81 68.63,33.16
             68.63,33.51 68.32,33.97 67.69,34.52
             67.06,35.08 65.94,35.61 64.47,36.10
             63.00,36.59 61.60,36.56 60.31,35.99
             55.51,34.14 51.73,33.09 49.03,32.88
             46.34,32.67 43.65,32.67 40.98,32.92
             40.39,32.95 39.73,32.81 39.13,32.49
             38.50,32.22 38.15,31.76 38.08,31.23
             38.01,30.78 38.18,30.12 38.57,29.42
             38.85,28.89 39.34,28.26 39.93,27.73
             40.43,27.52 40.63,27.17 40.50,26.79
             40.36,26.44 39.90,26.16 39.20,26.06
             38.50,25.92 37.91,25.67 37.48,25.39
             36.99,25.15 36.78,24.83 36.86,24.45
             36.93,24.02 37.31,23.67 37.87,23.50
             37.87,23.50 37.91,23.43 37.98,23.40
             38.05,23.32 38.22,23.22 38.36,23.15
             38.92,22.77 39.45,22.27 39.93,21.82
             40.43,21.33 40.74,20.87 40.74,20.63
             40.81,20.21 40.46,19.72 39.66,19.23
             39.38,19.23 39.03,19.27 38.68,19.37
             38.33,19.48 37.91,19.72 37.38,20.00
             36.61,20.14 36.30,19.93 36.37,19.40
             36.43,18.92 36.82,18.35 37.52,17.87
             38.15,17.37 38.78,17.30 39.31,17.65
             39.80,18.00 40.63,18.35 41.72,18.60
             42.18,18.60 42.49,18.70 42.63,18.77 Z
           M 62.68,11.98
           C 62.62,12.40 62.23,12.82 61.60,13.25
             61.00,13.63 60.17,13.73 59.29,13.59
             58.45,13.52 57.50,13.45 56.42,13.45
             56.35,13.63 56.21,13.80 56.10,13.94
             55.68,14.43 55.16,15.10 54.46,15.87
             54.46,15.87 53.76,16.57 53.76,16.57
             54.53,16.71 55.44,17.13 56.45,17.69
             57.64,18.39 58.56,19.12 59.12,19.86
             59.15,19.90 59.22,20.00 59.25,20.07
             59.29,20.00 59.39,19.90 59.50,19.79
             59.50,19.79 61.60,16.67 61.60,16.67
             62.02,16.22 62.54,16.18 63.10,16.64
             63.67,17.13 63.94,17.69 63.91,18.15
             63.84,18.63 63.45,19.02 62.83,19.27
             62.54,19.33 61.92,19.65 61.08,20.14
             60.83,20.21 60.58,20.35 60.44,20.46
             60.58,20.52 60.79,20.63 60.97,20.77
             61.22,20.91 61.49,21.08 61.81,21.22
             62.16,21.33 62.65,21.54 63.18,21.82
             63.77,22.10 64.30,22.31 64.78,22.48
             65.24,22.63 65.77,22.80 66.39,22.87
             67.03,23.01 67.13,23.36 66.74,23.82
             66.36,24.31 65.66,24.76 64.61,25.07
             63.63,25.42 62.72,25.22 62.02,24.52
             62.02,24.52 60.79,23.12 60.79,23.12
             60.55,22.87 60.31,22.63 60.09,22.48
             60.17,23.25 59.99,24.20 59.68,25.22
             59.25,26.33 58.52,27.52 57.54,28.75
             56.59,30.04 55.75,30.67 55.16,30.67
             54.57,30.67 54.04,30.40 53.73,29.94
             53.38,29.52 53.58,29.00 54.35,28.43
             54.74,28.15 55.30,27.67 55.97,26.93
             56.63,26.27 57.16,25.53 57.54,24.87
             57.89,24.17 58.13,23.53 58.13,23.01
             58.13,22.31 57.89,21.65 57.37,20.91
             57.29,21.15 57.12,21.43 56.98,21.68
             56.38,22.91 55.44,24.17 54.35,25.39
             53.23,26.62 52.12,27.63 51.07,28.29
             50.02,28.92 49.21,29.17 48.65,29.03
             48.13,28.89 47.92,28.57 47.95,28.12
             47.95,27.70 48.41,27.17 49.25,26.68
             50.78,25.88 52.25,24.80 53.58,23.50
             54.95,22.17 55.83,20.95 56.24,19.76
             56.03,19.62 55.75,19.44 55.54,19.33
             55.37,19.23 55.13,19.16 54.92,19.09
             54.81,19.40 54.57,19.79 54.28,20.14
             53.62,21.15 52.68,22.20 51.59,23.25
             50.51,24.27 49.42,25.04 48.37,25.60
             47.28,26.09 46.45,26.27 45.92,26.06
             45.40,25.88 45.22,25.53 45.26,25.07
             45.33,24.69 45.85,24.20 46.69,23.78
             48.20,23.18 49.63,22.31 51.03,21.30
             52.18,20.38 53.03,19.44 53.52,18.57
             52.82,18.39 52.25,18.32 51.77,18.28
             51.77,18.28 51.56,18.49 51.56,18.49
             50.33,19.44 49.00,20.28 47.63,20.84
             46.90,21.15 46.27,21.15 45.78,20.87
             45.29,20.63 44.98,20.17 44.83,19.65
             44.70,19.16 45.01,18.81 45.75,18.70
             46.34,18.63 47.01,18.46 47.78,18.18
             48.51,17.93 49.35,17.55 50.16,17.06
             51.00,16.57 51.66,16.05 52.22,15.52
             52.71,14.96 53.09,14.54 53.23,14.19
             53.23,14.19 53.48,13.59 53.48,13.59
             51.98,13.70 50.82,13.91 50.05,14.19
             48.62,14.57 47.74,14.57 47.43,14.15
             47.08,13.73 47.08,13.25 47.43,12.68
             47.74,12.12 48.33,11.74 49.25,11.53
             50.08,11.35 51.00,11.32 51.83,11.39
             52.08,11.39 53.03,11.42 54.60,11.42
             54.60,11.42 61.28,11.42 61.28,11.42
             62.30,11.42 62.72,11.63 62.68,11.98 Z
           M 93.59,13.28
           C 93.83,13.49 93.91,13.80 93.80,14.15
             93.69,14.50 93.28,14.68 92.50,14.68
             92.50,14.68 90.48,14.68 90.48,14.68
             90.48,14.78 90.48,15.07 90.51,15.42
             90.51,15.42 90.51,16.29 90.51,16.29
             91.42,16.29 92.05,16.40 92.37,16.60
             92.72,16.82 92.96,17.06 93.03,17.27
             93.10,17.48 93.07,17.73 92.93,17.97
             92.82,18.18 92.72,18.39 92.68,18.53
             92.54,19.20 92.26,19.76 91.98,20.07
             91.73,20.35 91.32,20.42 90.83,20.35
             90.72,20.32 90.58,20.28 90.51,20.35
             90.48,20.49 90.48,20.81 90.48,21.30
             90.48,21.30 90.48,21.89 90.48,21.89
             91.18,21.89 91.73,21.86 92.08,21.86
             92.54,21.86 93.00,21.82 93.34,21.75
             93.73,21.68 94.05,21.61 94.18,21.57
             94.36,21.54 94.50,21.57 94.53,21.65
             94.57,21.75 94.36,22.13 93.94,22.77
             93.48,23.40 93.07,23.82 92.72,23.95
             92.61,24.02 92.43,23.99 92.26,23.92
             92.08,23.85 91.73,23.78 91.21,23.75
             90.68,23.71 90.13,23.71 89.57,23.75
             89.00,23.78 88.55,23.88 88.20,23.99
             87.85,24.09 87.57,24.23 87.43,24.38
             86.80,24.72 86.28,24.90 86.03,24.90
             85.75,24.90 85.43,24.69 85.12,24.27
             84.84,23.85 84.67,23.47 84.67,23.15
             84.67,22.83 84.77,22.56 84.91,22.34
             85.19,21.82 85.33,21.02 85.26,20.11
             85.33,18.46 85.26,17.13 85.05,16.22
             84.88,15.38 84.81,14.78 84.84,14.50
             84.63,14.08 84.70,13.67 85.05,13.32
             85.40,13.00 86.17,12.86 87.33,12.89
             88.76,12.89 90.19,12.97 91.53,12.97
             92.61,12.93 93.34,13.03 93.59,13.28 Z
           M 87.64,22.17
           C 87.95,22.10 88.41,22.07 88.97,22.03
             88.97,21.96 88.97,21.65 88.93,21.19
             88.93,21.19 88.93,20.38 88.93,20.38
             88.93,20.35 88.93,20.32 88.90,20.38
             88.55,20.38 88.03,20.49 87.43,20.60
             87.43,20.60 86.69,20.60 86.69,20.60
             86.69,21.54 86.77,22.10 86.83,22.24
             86.87,22.31 87.18,22.27 87.64,22.17 Z
           M 87.01,15.27
           C 86.94,15.52 86.83,15.94 86.83,16.43
             87.08,16.36 87.43,16.36 87.75,16.36
             87.75,16.36 88.93,16.36 88.93,16.36
             88.93,16.29 88.97,16.25 88.97,16.18
             88.97,16.18 88.97,15.31 88.97,15.31
             88.97,15.03 88.93,14.78 88.93,14.68
             88.23,14.68 87.57,14.72 87.08,14.78
             87.08,14.89 87.05,15.07 87.01,15.27 Z
           M 86.77,19.16
           C 87.01,19.12 87.36,19.12 87.75,19.16
             87.95,19.16 88.34,19.12 88.80,19.12
             89.22,19.12 89.70,19.06 90.19,19.06
             90.51,19.06 90.75,18.98 90.83,18.92
             91.00,18.74 91.11,18.35 91.11,17.83
             91.11,17.76 91.11,17.69 91.03,17.65
             90.97,17.58 90.75,17.52 90.55,17.48
             89.98,17.48 89.43,17.55 89.00,17.55
             88.55,17.58 87.95,17.69 87.43,17.80
             87.15,17.83 86.91,17.87 86.77,17.87
             86.77,17.87 86.77,18.98 86.77,18.98
             86.77,18.98 86.77,19.16 86.77,19.16 Z
           M 97.41,19.33
           C 97.62,19.20 97.86,19.23 98.14,19.51
             98.77,20.07 99.61,20.77 100.66,21.54
             101.29,22.03 101.43,22.48 101.15,22.87
             100.87,23.22 100.42,23.47 99.78,23.50
             99.19,23.53 98.63,23.18 98.07,22.48
             97.86,22.10 97.58,21.33 97.27,20.25
             97.13,19.82 97.19,19.48 97.41,19.33 Z
           M 99.19,25.77
           C 99.58,26.13 99.75,26.65 99.72,27.38
             99.64,27.73 99.61,28.19 99.61,28.75
             99.61,29.31 99.54,30.22 99.43,31.37
             99.43,31.58 99.37,31.83 99.37,32.04
             99.37,32.04 102.93,32.46 102.93,32.46
             103.50,32.53 103.57,32.88 103.25,33.44
             102.90,33.97 102.48,34.52 102.03,34.94
             101.57,35.33 100.94,35.37 100.24,35.08
             99.33,34.67 98.53,34.35 97.75,34.17
             97.02,33.97 95.97,33.82 94.61,33.75
             93.24,33.72 91.91,33.72 90.58,33.79
             89.28,33.89 88.34,34.07 87.71,34.21
             87.15,34.38 86.59,34.59 86.17,34.81
             85.33,35.22 84.63,35.19 84.21,34.67
             83.79,34.14 83.86,33.47 84.49,32.70
             84.81,32.32 85.30,32.11 85.78,32.14
             85.93,32.14 86.20,32.11 86.63,32.11
             86.63,31.90 86.63,31.62 86.59,31.34
             86.59,31.34 86.59,26.79 86.59,26.79
             86.59,26.09 86.73,25.57 87.01,25.32
             87.29,25.07 88.06,24.97 89.22,24.97
             92.26,24.90 95.03,24.97 97.44,25.11
             98.21,25.18 98.84,25.42 99.19,25.77 Z
           M 95.55,31.72
           C 95.55,31.72 97.51,31.83 97.51,31.83
             97.51,31.83 97.51,31.23 97.51,31.23
             97.55,30.29 97.55,29.38 97.55,28.61
             97.55,27.81 97.48,27.35 97.44,27.32
             97.16,27.03 96.53,26.79 95.66,26.72
             95.58,27.28 95.55,28.15 95.55,29.38
             95.55,29.38 95.55,31.72 95.55,31.72 Z
           M 92.12,31.69
           C 92.12,31.69 94.01,31.69 94.01,31.69
             94.08,31.41 94.15,30.57 94.15,29.20
             94.15,27.87 94.15,27.00 94.12,26.65
             93.73,26.65 93.31,26.68 92.89,26.68
             92.89,26.68 92.12,26.68 92.12,26.68
             92.05,27.11 92.05,27.98 92.05,29.31
             92.05,30.53 92.08,31.34 92.12,31.69 Z
           M 90.55,26.82
           C 89.46,26.93 88.87,27.14 88.76,27.35
             88.76,27.42 88.69,27.84 88.69,28.57
             88.69,28.57 88.69,30.88 88.69,30.88
             88.69,31.27 88.66,31.65 88.58,31.97
             88.80,31.97 89.08,31.90 89.36,31.90
             89.74,31.83 90.16,31.79 90.55,31.79
             90.55,31.72 90.58,31.65 90.58,31.62
             90.65,31.27 90.65,30.47 90.65,29.17
             90.65,28.02 90.62,27.25 90.55,26.82 Z
           M 93.10,19.27
           C 93.03,19.02 93.10,18.70 93.34,18.46
             93.87,18.07 94.33,17.69 94.68,17.34
             94.99,16.99 95.31,16.64 95.44,16.40
             95.58,16.22 95.76,15.94 95.83,15.70
             95.90,15.42 95.97,15.17 95.97,14.96
             95.90,14.50 95.80,14.08 95.73,13.84
             95.66,13.59 95.66,13.32 95.76,13.14
             95.90,12.93 96.18,12.82 96.57,12.86
             96.98,12.86 97.33,13.14 97.62,13.52
             97.86,13.94 97.93,14.37 97.79,14.78
             97.72,14.92 97.68,15.17 97.65,15.42
             97.89,15.48 98.21,15.59 98.56,15.66
             99.50,15.73 100.35,15.77 101.01,15.77
             101.71,15.77 102.17,15.70 102.45,15.66
             103.08,15.48 103.32,15.66 103.22,16.15
             103.11,16.60 102.80,17.17 102.38,17.69
             101.99,18.18 101.43,18.35 100.87,18.15
             100.56,17.83 100.17,17.55 99.82,17.34
             99.33,17.23 98.77,17.23 98.14,17.37
             97.72,17.44 97.37,17.41 97.09,17.27
             97.09,17.30 97.02,17.37 97.02,17.41
             96.81,17.76 96.53,18.15 96.28,18.49
             96.00,18.85 95.66,19.16 95.27,19.48
             94.85,19.86 94.43,20.00 93.94,19.93
             93.48,19.82 93.20,19.58 93.10,19.27 Z
           M 78.26,18.04
           C 78.54,17.80 78.78,17.73 79.07,17.87
             79.34,18.00 79.52,18.22 79.59,18.42
             79.66,18.67 79.63,19.09 79.48,19.55
             79.34,20.07 79.17,20.63 79.03,21.26
             79.00,21.40 78.89,21.54 78.82,21.57
             78.75,21.61 78.68,21.57 78.61,21.43
             78.58,21.30 78.50,21.15 78.43,21.02
             78.23,20.32 78.05,19.58 77.98,18.92
             77.91,18.60 78.02,18.28 78.26,18.04 Z
           M 78.12,24.90
           C 78.40,24.66 78.68,24.58 78.93,24.72
             79.20,24.87 79.38,25.04 79.45,25.25
             79.56,25.53 79.52,26.02 79.38,26.62
             79.24,27.25 79.03,27.95 78.89,28.65
             78.86,28.78 78.75,28.92 78.72,28.96
             78.64,29.00 78.54,28.96 78.47,28.82
             78.43,28.68 78.37,28.54 78.30,28.40
             78.08,27.52 77.91,26.58 77.84,25.74
             77.77,25.42 77.88,25.11 78.12,24.90 Z
           M 82.84,35.61
           C 82.32,35.89 81.83,35.82 81.44,35.43
             81.06,35.12 80.82,34.32 80.75,33.23
             80.68,32.14 80.64,30.18 80.64,27.45
             80.64,27.45 80.64,23.88 80.64,23.88
             79.83,23.85 78.78,23.85 77.70,23.92
             77.28,23.92 76.93,23.95 76.58,23.99
             76.58,25.28 76.48,26.47 76.41,27.59
             76.19,29.38 75.88,30.85 75.53,31.90
             75.14,32.92 74.69,33.82 74.27,34.59
             73.53,35.47 72.91,35.92 72.34,35.92
             71.78,35.92 71.43,35.64 71.37,35.19
             71.26,34.70 71.50,33.97 72.17,33.09
             72.80,32.00 73.25,30.95 73.61,30.01
             73.95,29.07 74.23,27.70 74.38,25.95
             74.38,25.46 74.41,24.93 74.41,24.34
             74.34,24.34 74.23,24.41 74.17,24.45
             73.05,24.76 72.34,24.76 72.10,24.41
             71.86,24.09 71.86,23.67 72.10,23.29
             72.34,22.87 72.83,22.52 73.50,22.38
             73.82,22.31 74.17,22.20 74.44,22.20
             74.44,20.84 74.41,19.16 74.38,17.34
             74.34,16.78 74.38,16.29 74.44,16.01
             74.55,15.66 74.76,15.38 75.00,15.17
             75.28,14.96 75.84,14.92 76.68,14.99
             76.72,14.99 76.83,15.03 76.93,15.03
             76.93,14.99 77.00,14.92 77.03,14.89
             77.45,14.12 77.77,13.49 77.84,13.10
             77.94,12.68 77.98,12.27 77.91,11.98
             77.88,11.39 78.26,11.04 79.03,10.97
             79.80,10.93 80.36,11.18 80.68,11.67
             80.95,12.12 80.92,12.65 80.50,13.10
             80.15,13.42 79.69,13.87 79.24,14.37
             78.93,14.64 78.64,14.89 78.43,15.10
             78.58,15.10 78.75,15.13 78.89,15.13
             79.94,15.17 80.75,15.17 81.27,15.13
             82.04,15.07 82.70,15.24 83.13,15.66
             83.51,16.08 83.62,16.78 83.33,17.69
             83.06,18.60 82.81,20.17 82.74,22.27
             82.74,22.27 83.19,22.27 83.19,22.27
             83.97,22.27 84.35,22.45 84.32,22.77
             84.25,23.05 83.93,23.40 83.44,23.71
             83.19,23.85 82.95,23.95 82.70,23.99
             82.70,23.99 82.70,24.31 82.70,24.31
             82.70,27.49 82.92,30.57 83.37,33.51
             83.55,34.67 83.37,35.37 82.84,35.61 Z
           M 76.62,22.24
           C 76.93,22.24 77.32,22.27 77.77,22.27
             77.77,22.27 80.68,22.27 80.68,22.27
             80.68,21.65 80.71,20.98 80.75,20.42
             80.82,18.49 80.75,17.44 80.53,17.37
             80.25,17.23 79.63,17.20 78.61,17.20
             77.56,17.20 76.97,17.27 76.79,17.34
             76.62,17.44 76.55,18.74 76.62,21.19
             76.62,21.19 76.62,22.24 76.62,22.24 Z
           M 118.76,16.53
           C 119.03,16.15 119.38,16.01 119.63,16.15
             119.91,16.25 120.08,16.60 120.08,17.17
             120.08,17.37 119.98,17.62 119.84,17.80
             120.75,17.87 122.15,17.97 123.97,17.97
             126.46,17.97 129.12,18.07 131.88,18.28
             133.10,18.28 133.98,18.60 134.37,19.16
             134.78,19.76 134.82,20.56 134.47,21.50
             134.30,22.07 134.16,22.70 134.08,23.40
             133.98,24.06 133.98,25.46 134.05,27.49
             134.05,29.00 133.88,30.36 133.53,31.45
             133.18,32.53 132.68,33.54 132.02,34.32
             131.35,35.12 130.31,35.78 128.94,36.27
             127.37,36.87 126.14,36.90 125.33,36.31
             124.50,35.72 123.97,35.15 123.90,34.67
             123.80,34.17 124.01,33.89 124.63,33.86
             125.58,34.00 126.67,33.97 127.68,33.72
             128.70,33.44 129.57,32.95 130.17,32.32
             130.80,31.72 131.25,30.88 131.50,29.94
             131.74,29.00 131.88,27.73 131.88,26.16
             131.78,25.00 131.67,23.92 131.60,22.97
             131.57,22.03 131.35,21.30 131.11,20.91
             130.72,20.38 130.06,20.03 129.22,19.93
             126.77,19.79 124.85,19.72 123.62,19.79
             122.40,19.86 121.07,20.03 119.70,20.25
             118.93,20.38 118.27,20.21 117.81,19.68
             117.36,20.00 116.83,20.35 116.34,20.63
             115.36,21.12 114.42,21.50 113.61,21.68
             112.35,21.89 111.48,21.86 110.98,21.50
             110.53,21.19 110.39,20.77 110.57,20.38
             110.78,19.97 111.37,19.62 112.35,19.40
             113.61,19.23 114.87,18.88 116.10,18.32
             117.32,17.80 118.20,17.20 118.76,16.53 Z
           M 117.71,23.95
           C 118.09,24.45 118.16,24.80 118.02,25.00
             117.85,25.15 117.46,25.15 116.93,25.00
             116.41,24.87 115.82,24.66 115.22,24.52
             114.59,24.38 114.17,24.13 114.03,23.82
             113.89,23.53 113.89,23.22 114.07,22.94
             114.24,22.66 114.56,22.42 114.98,22.27
             115.33,22.13 115.71,22.10 115.99,22.24
             116.31,22.38 116.55,22.59 116.62,22.80
             116.87,23.15 117.25,23.53 117.71,23.95 Z
           M 125.90,22.00
           C 126.32,22.07 126.60,22.31 126.63,22.70
             126.67,23.12 126.60,23.47 126.42,23.64
             126.21,23.92 125.76,24.17 125.16,24.38
             124.53,24.58 123.83,24.87 123.06,25.07
             122.85,25.15 122.64,25.15 122.53,25.11
             122.47,25.04 122.47,24.93 122.53,24.80
             122.64,24.66 122.78,24.45 122.85,24.31
             123.45,23.53 124.08,22.87 124.78,22.27
             125.06,22.03 125.44,21.92 125.90,22.00 Z
           M 129.82,26.47
           C 129.75,26.90 129.36,27.32 128.73,27.73
             128.13,28.12 127.30,28.22 126.42,28.08
             125.13,27.91 123.45,27.81 121.52,27.81
             121.52,29.03 121.45,30.43 121.45,31.97
             121.48,33.27 121.42,34.28 121.28,35.05
             121.13,35.78 120.86,36.24 120.51,36.34
             120.16,36.45 119.81,36.31 119.56,35.96
             119.32,35.61 119.14,34.59 119.11,32.95
             119.11,32.95 119.11,29.62 119.11,29.62
             118.48,30.40 117.74,31.20 116.87,31.97
             115.78,32.84 114.73,33.58 113.75,34.00
             112.42,34.49 111.48,34.59 110.92,34.32
             110.36,34.03 110.15,33.65 110.28,33.16
             110.43,32.67 110.98,32.22 112.03,31.83
             113.47,31.37 114.94,30.71 116.31,29.87
             117.32,29.20 118.16,28.50 118.72,27.84
             116.20,27.91 114.31,28.12 113.08,28.54
             111.65,28.92 110.78,28.92 110.46,28.50
             110.11,28.08 110.11,27.59 110.46,27.03
             110.78,26.47 111.37,26.09 112.28,25.88
             113.12,25.70 114.00,25.67 114.87,25.74
             115.22,25.77 116.58,25.84 118.83,25.84
             118.83,25.84 119.18,25.84 119.18,25.84
             119.18,25.11 119.21,24.52 119.21,24.09
             119.14,22.94 119.21,22.10 119.42,21.61
             119.60,21.12 119.88,20.81 120.23,20.73
             120.58,20.63 120.93,20.77 121.17,21.19
             121.45,21.57 121.63,22.31 121.63,23.36
             121.59,24.02 121.56,24.90 121.56,25.84
             123.45,25.84 125.72,25.92 128.38,25.92
             129.43,25.92 129.85,26.13 129.82,26.47 Z
           M 124.78,29.62
           C 125.33,29.77 125.86,29.87 126.35,29.87
             127.16,29.87 127.72,30.18 127.86,30.67
             128.00,31.17 127.93,31.69 127.58,32.18
             127.23,32.63 126.73,32.77 126.11,32.63
             125.62,32.49 124.98,32.18 124.28,31.62
             123.62,31.09 123.06,30.61 122.75,30.18
             122.43,29.70 122.33,29.38 122.47,29.24
             122.61,29.07 122.92,29.07 123.27,29.20
             123.76,29.38 124.25,29.52 124.78,29.62 Z
           M 129.15,12.72
           C 129.08,12.79 129.01,12.89 128.97,12.97
             129.53,12.97 130.10,13.00 130.66,13.00
             133.60,13.07 135.45,13.17 136.12,13.17
             136.96,13.21 137.41,13.35 137.48,13.63
             137.55,13.91 137.31,14.40 136.71,15.07
             136.12,15.77 135.52,16.25 134.93,16.47
             134.37,16.67 133.60,16.64 132.68,16.32
             131.85,16.01 130.69,15.63 129.18,15.31
             128.83,15.24 128.45,15.17 128.13,15.13
             128.13,15.13 127.89,15.94 127.89,15.94
             127.65,16.67 127.33,17.17 127.02,17.37
             126.70,17.58 126.42,17.52 126.28,17.17
             126.11,16.82 126.07,16.29 126.18,15.66
             126.18,15.38 126.25,15.10 126.25,14.89
             125.16,14.78 123.83,14.72 122.40,14.64
             120.96,14.68 119.32,14.82 117.57,15.03
             117.57,15.34 117.60,15.70 117.63,16.05
             117.63,16.53 117.50,16.95 117.28,17.23
             117.04,17.48 116.76,17.48 116.52,17.27
             116.23,17.06 115.99,16.64 115.85,16.15
             115.78,15.83 115.68,15.52 115.64,15.27
             113.82,15.55 112.28,15.97 110.98,16.43
             109.62,16.92 108.75,17.06 108.33,16.85
             107.94,16.64 107.73,16.25 107.73,15.80
             107.73,15.31 108.01,14.75 108.64,14.19
             109.27,13.59 110.01,13.28 110.88,13.21
             112.14,13.14 113.54,13.03 115.05,13.00
             114.98,12.68 114.83,12.37 114.73,12.09
             114.56,11.70 114.70,11.28 115.18,10.90
             115.61,10.52 116.17,10.48 116.76,10.83
             117.39,11.18 117.63,11.60 117.53,12.02
             117.50,12.23 117.50,12.58 117.50,12.97
             118.41,12.97 119.46,12.93 120.51,12.93
             120.51,12.93 126.46,12.93 126.46,12.93
             126.49,12.62 126.53,12.33 126.53,12.19
             126.53,11.57 126.81,11.11 127.37,10.93
             127.96,10.72 128.48,10.87 128.91,11.32
             129.36,11.81 129.43,12.27 129.15,12.72 Z
           M 157.40,25.92
           C 154.38,25.95 152.43,26.06 151.66,26.16
             151.66,26.16 151.38,26.16 151.38,26.16
             150.71,27.84 150.01,29.31 149.28,30.47
             148.33,31.97 147.28,33.33 146.23,34.42
             145.71,34.91 145.18,35.22 144.69,35.29
             144.23,35.40 143.82,35.29 143.47,34.98
             143.12,34.63 142.94,34.28 142.94,33.97
             142.94,33.68 143.26,33.27 143.78,32.81
             146.27,30.43 148.16,28.05 149.35,25.74
             150.50,23.43 151.17,21.37 151.17,19.65
             151.17,17.93 151.10,16.29 150.92,14.85
             150.78,13.91 150.82,13.21 151.06,12.82
             151.34,12.40 151.66,12.23 151.97,12.23
             151.97,12.23 153.20,12.30 153.20,12.30
             153.83,12.30 155.68,12.33 158.69,12.33
             158.69,12.33 164.01,12.33 164.01,12.33
             164.68,12.33 165.17,12.54 165.48,12.89
             165.83,13.25 166.04,13.56 166.11,13.91
             166.15,14.22 166.04,14.61 165.80,14.96
             165.55,15.31 165.38,15.77 165.31,16.25
             165.23,16.95 165.13,19.23 165.13,23.05
             165.13,26.82 165.34,29.52 165.76,31.09
             166.18,32.67 166.15,33.93 165.73,34.84
             165.45,35.29 165.06,35.61 164.75,35.64
             164.36,35.68 164.01,35.57 163.73,35.33
             163.45,35.08 163.28,34.73 163.24,34.38
             163.00,31.41 162.86,28.61 162.86,26.09
             162.02,25.95 160.20,25.92 157.40,25.92 Z
           M 152.08,23.99
           C 153.13,24.09 154.98,24.17 157.64,24.17
             160.30,24.13 162.05,24.02 162.89,23.95
             162.89,23.08 162.93,22.17 163.00,21.43
             163.00,20.87 163.03,20.38 163.03,19.93
             162.33,19.79 160.68,19.72 158.13,19.72
             155.47,19.76 153.79,19.86 153.13,19.93
             152.88,21.19 152.53,22.56 152.08,23.99 Z
           M 153.51,14.68
           C 153.27,15.03 153.13,16.15 153.13,17.83
             153.97,17.97 155.75,18.04 158.38,18.04
             160.76,18.00 162.33,17.93 163.07,17.87
             163.03,16.18 162.82,15.07 162.47,14.64
             162.33,14.50 161.95,14.37 161.42,14.26
             160.86,14.15 159.43,14.12 157.18,14.19
             154.95,14.22 153.72,14.40 153.51,14.68 Z
           M 200.62,18.39
           C 201.22,18.74 201.60,19.09 201.81,19.33
             202.02,19.65 201.92,20.17 201.57,20.77
             201.36,21.12 201.15,21.68 200.87,22.31
             200.58,22.97 200.34,23.61 200.17,24.20
             199.88,25.00 199.50,25.53 199.01,25.77
             198.48,26.02 197.89,26.06 197.19,25.88
             195.68,25.46 193.69,25.28 191.21,25.28
             188.76,25.32 186.97,25.60 185.99,26.02
             185.50,26.30 185.08,26.27 184.73,25.98
             184.38,25.70 184.07,25.07 183.78,24.20
             183.19,22.03 182.73,20.67 182.53,20.32
             182.25,19.68 182.25,19.16 182.49,18.77
             182.77,18.35 183.43,18.11 184.45,18.07
             185.47,18.04 186.97,17.93 188.90,17.87
             190.82,17.80 193.45,17.80 196.77,17.87
             198.73,17.87 200.03,18.07 200.62,18.39 Z
           M 193.45,23.64
           C 194.67,23.64 195.86,23.67 196.98,23.75
             197.47,23.75 197.86,23.71 198.00,23.64
             198.13,23.57 198.28,23.50 198.35,23.36
             198.66,22.31 199.01,21.37 199.22,20.49
             199.29,20.25 199.22,20.03 199.01,19.90
             198.80,19.76 198.31,19.68 197.61,19.68
             196.11,19.65 194.67,19.65 193.45,19.72
             193.41,20.03 193.38,20.70 193.38,21.75
             193.38,22.77 193.45,23.43 193.45,23.64 Z
           M 191.07,19.65
           C 188.65,19.65 186.80,19.79 185.61,19.93
             185.33,19.97 185.15,20.11 185.05,20.25
             184.98,20.38 184.94,20.60 184.94,20.73
             185.05,21.57 185.29,22.48 185.64,23.50
             185.71,23.61 185.85,23.78 185.99,23.85
             186.13,23.92 186.38,23.95 186.66,23.92
             188.16,23.82 189.67,23.71 191.07,23.67
             191.07,23.57 191.10,23.47 191.13,23.40
             191.17,23.18 191.21,22.56 191.21,21.61
             191.21,20.63 191.13,20.03 191.10,19.82
             191.10,19.76 191.07,19.68 191.07,19.65 Z
           M 186.34,21.43
           C 186.34,21.08 186.55,20.84 186.83,20.84
             187.18,20.81 187.63,20.84 188.13,20.91
             188.65,20.98 189.14,21.08 189.49,21.15
             189.88,21.30 190.12,21.47 190.12,21.65
             190.12,21.82 189.95,21.96 189.60,22.03
             189.60,22.03 187.71,22.27 187.71,22.27
             187.22,22.34 186.83,22.27 186.62,22.13
             186.41,22.03 186.34,21.78 186.34,21.43 Z
           M 197.78,21.47
           C 197.82,21.82 197.68,22.07 197.37,22.10
             197.02,22.20 196.56,22.27 196.00,22.27
             196.00,22.27 194.57,22.27 194.57,22.27
             194.11,22.24 193.87,22.10 193.87,21.96
             193.87,21.78 193.97,21.61 194.28,21.47
             195.09,21.22 195.72,20.98 196.21,20.84
             196.70,20.70 197.08,20.67 197.37,20.77
             197.61,20.87 197.78,21.12 197.78,21.47 Z
           M 177.83,19.51
           C 177.35,19.48 176.89,19.16 176.61,18.53
             176.37,17.93 176.37,17.52 176.58,17.23
             176.78,16.99 177.42,16.78 178.29,16.64
             179.06,16.57 180.28,16.22 181.93,15.66
             183.58,15.07 185.33,14.26 187.18,13.32
             189.00,12.30 190.16,11.57 190.58,11.11
             190.93,10.62 191.31,10.38 191.66,10.38
             192.05,10.38 192.33,10.44 192.47,10.69
             192.47,10.69 192.50,10.83 192.50,10.83
             192.92,11.22 193.90,11.81 195.30,12.54
             197.02,13.42 199.18,14.29 201.63,14.99
             204.12,15.73 205.94,16.08 207.17,16.08
             208.46,16.08 208.85,16.29 208.43,16.82
             207.97,17.37 207.13,17.93 205.94,18.57
             204.78,19.16 203.67,19.16 202.72,18.53
             199.29,16.47 196.84,15.10 195.44,14.43
             194.04,13.73 193.06,13.32 192.50,13.17
             192.12,13.03 191.66,12.97 191.28,12.97
             191.28,12.97 187.92,15.13 187.92,15.13
             187.92,15.13 189.00,15.13 189.00,15.13
             190.96,15.10 192.82,15.07 194.60,15.07
             195.62,15.03 196.32,15.13 196.56,15.34
             196.81,15.59 196.88,15.90 196.81,16.22
             196.70,16.50 196.25,16.67 195.55,16.67
             193.97,16.67 192.53,16.67 191.38,16.71
             190.23,16.71 189.21,16.85 188.37,16.99
             187.50,17.17 186.87,17.06 186.66,16.64
             186.55,16.40 186.52,16.18 186.58,15.97
             186.52,15.97 186.41,16.05 186.34,16.12
             183.75,17.62 181.55,18.63 179.83,19.16
             179.03,19.40 178.33,19.51 177.83,19.51 Z
           M 185.96,35.78
           C 185.57,35.43 185.33,34.81 185.29,33.89
             185.29,33.37 185.26,32.67 185.22,31.93
             185.18,31.17 185.15,30.50 185.15,29.97
             185.15,29.45 185.12,29.03 185.12,28.75
             185.05,28.05 185.15,27.52 185.47,27.17
             185.82,26.86 186.31,26.68 186.90,26.68
             186.90,26.68 191.07,26.55 191.07,26.55
             192.88,26.47 194.53,26.47 195.93,26.51
             196.91,26.58 197.65,26.75 198.13,27.03
             198.59,27.32 198.80,27.77 198.80,28.37
             198.73,30.18 198.70,32.04 198.70,33.79
             198.70,34.73 198.35,35.33 197.82,35.61
             197.23,35.89 196.60,35.96 195.97,35.82
             195.51,35.72 194.25,35.68 192.29,35.68
             190.26,35.68 188.68,35.82 187.67,36.07
             186.90,36.24 186.31,36.13 185.96,35.78 Z
           M 196.46,30.08
           C 196.38,29.20 196.32,28.68 196.25,28.57
             196.18,28.47 194.71,28.43 191.94,28.43
             189.14,28.43 187.63,28.57 187.43,28.75
             187.28,28.86 187.25,29.31 187.25,30.01
             188.09,30.15 189.73,30.22 192.22,30.22
             192.22,30.22 196.46,30.08 196.46,30.08 Z
           M 187.74,33.58
           C 187.92,33.72 188.93,33.72 190.75,33.65
             192.53,33.58 193.93,33.51 194.78,33.51
             195.58,33.51 196.14,33.44 196.28,33.30
             196.42,33.16 196.49,32.60 196.49,31.76
             195.72,31.69 194.18,31.65 191.98,31.65
             189.63,31.65 188.13,31.72 187.36,31.79
             187.43,32.84 187.60,33.47 187.74,33.58 Z" />
</svg>
