<svg xmlns="http://www.w3.org/2000/svg"
     width="210" height="35"
     viewBox="0 0 210 35">
  <path fill="#333"
        d="M 16.38,15.43
           C 16.38,18.66 16.35,21.81 16.21,24.75
             16.17,25.06 16.17,25.41 16.21,25.69
             16.00,25.76 15.75,25.93 15.58,26.18
             14.95,26.92 14.88,27.62 15.30,28.11
             15.75,28.63 16.42,28.67 17.29,28.24
             17.64,28.07 18.13,27.86 18.69,27.75
             19.22,27.58 20.16,27.40 21.32,27.30
             22.47,27.19 23.70,27.16 24.92,27.23
             26.18,27.30 27.16,27.44 27.83,27.62
             28.53,27.75 29.30,28.03 30.10,28.38
             30.80,28.70 31.43,28.67 31.88,28.24
             32.34,27.82 32.76,27.30 33.11,26.74
             33.46,26.22 33.36,25.87 32.80,25.79
             29.93,25.45 27.55,25.20 25.66,25.13
             23.77,25.09 21.91,25.17 20.16,25.34
             20.16,25.34 18.38,25.52 18.38,25.52
             18.38,25.52 18.38,24.22 18.38,24.22
             18.34,23.17 18.34,21.03 18.34,17.95
             18.34,14.87 18.48,12.07 18.62,9.63
             18.62,9.63 18.62,9.07 18.62,9.07
             18.73,9.07 18.87,9.03 18.97,9.03
             19.53,8.92 20.20,8.78 20.90,8.75
             21.63,8.68 22.61,8.61 23.80,8.61
             24.99,8.61 26.04,8.68 26.84,8.78
             27.65,8.85 28.38,8.99 29.05,9.13
             29.65,9.27 30.10,9.27 30.31,9.17
             30.66,8.96 30.91,8.64 30.98,8.29
             31.05,7.91 31.01,7.56 30.87,7.35
             30.73,7.17 30.34,7.00 29.78,7.00
             27.41,6.82 25.27,6.68 23.48,6.68
             21.73,6.68 20.20,6.72 18.97,6.79
             18.17,6.86 17.53,7.03 17.15,7.28
             17.15,7.28 17.01,7.35 17.01,7.35
             16.98,7.35 16.91,7.38 16.91,7.42
             16.48,7.77 16.31,8.43 16.38,9.27
             16.38,9.27 16.38,15.43 16.38,15.43 Z
           M 21.21,13.37
           C 21.28,14.63 21.49,15.37 21.81,15.57
             22.12,15.78 22.65,15.78 23.28,15.61
             23.45,15.54 23.83,15.47 24.36,15.47
             24.88,15.47 25.48,15.47 26.04,15.54
             26.57,15.65 27.06,15.61 27.48,15.40
             27.86,15.19 28.21,14.84 28.38,14.46
             28.59,14.03 28.70,13.55 28.70,13.12
             28.70,13.12 28.70,12.70 28.70,12.70
             28.70,12.35 28.73,11.93 28.84,11.55
             28.98,11.13 28.81,10.74 28.35,10.50
             27.90,10.25 27.27,10.18 26.50,10.25
             24.96,10.25 23.91,10.32 23.35,10.36
             23.10,10.32 22.72,10.25 22.37,10.25
             22.02,10.25 21.70,10.32 21.49,10.57
             21.28,10.85 21.18,11.37 21.18,12.07
             21.18,12.42 21.21,12.88 21.21,13.37 Z
           M 25.73,13.51
           C 25.34,13.51 24.82,13.55 24.18,13.58
             23.56,13.62 23.17,13.58 23.10,13.51
             23.07,13.44 23.00,13.16 23.00,12.77
             23.00,12.35 23.07,12.07 23.13,12.00
             23.28,11.90 23.87,11.80 24.82,11.80
             25.80,11.80 26.39,11.83 26.53,11.93
             26.60,12.00 26.63,12.32 26.63,12.74
             26.63,13.16 26.57,13.40 26.46,13.48
             26.39,13.51 26.15,13.51 25.73,13.51 Z
           M 19.28,21.17
           C 19.36,22.40 19.57,23.17 19.88,23.38
             20.23,23.56 20.72,23.56 21.35,23.38
             21.42,23.38 21.56,23.34 21.73,23.34
             21.73,23.34 22.33,23.34 22.33,23.34
             22.89,23.42 23.35,23.38 23.77,23.20
             24.18,23.00 24.53,22.65 24.71,22.22
             24.88,21.84 24.99,21.35 24.99,20.90
             24.99,20.90 24.99,19.81 24.99,19.81
             24.99,19.46 25.03,19.04 25.13,18.66
             25.27,18.23 25.10,17.85 24.68,17.61
             24.22,17.40 23.56,17.29 22.82,17.36
             22.12,17.40 21.67,17.47 21.46,17.50
             21.18,17.47 20.79,17.40 20.44,17.40
             20.13,17.36 19.78,17.47 19.57,17.67
             19.36,17.95 19.25,18.48 19.25,19.18
             19.25,19.67 19.28,20.37 19.28,21.17 Z
           M 21.18,21.32
           C 21.11,21.21 21.03,20.82 21.03,20.23
             21.03,19.60 21.11,19.18 21.21,19.11
             21.28,19.07 21.56,19.00 22.02,19.00
             22.51,19.00 22.78,19.00 22.86,19.04
             22.96,19.15 23.03,19.57 23.03,20.20
             23.03,20.79 22.96,21.17 22.78,21.28
             22.75,21.28 22.61,21.32 22.43,21.32
             22.23,21.32 21.95,21.35 21.70,21.35
             21.42,21.35 21.21,21.35 21.18,21.32 Z
           M 25.87,20.75
           C 25.93,21.98 26.15,22.75 26.43,22.96
             26.78,23.17 27.30,23.17 27.90,23.00
             27.97,23.00 28.14,22.92 28.35,22.92
             28.35,22.92 29.05,22.92 29.05,22.92
             29.58,23.03 30.07,23.00 30.48,22.78
             30.87,22.57 31.22,22.22 31.40,21.84
             31.61,21.42 31.71,20.93 31.71,20.47
             31.71,20.47 31.71,19.67 31.71,19.67
             31.71,19.32 31.75,18.93 31.85,18.52
             31.99,18.09 31.82,17.71 31.36,17.50
             30.91,17.25 30.28,17.15 29.51,17.22
             28.77,17.25 28.25,17.32 28.00,17.36
             27.72,17.32 27.37,17.25 27.02,17.25
             26.67,17.22 26.32,17.32 26.15,17.53
             25.93,17.82 25.83,18.34 25.83,19.04
             25.83,19.46 25.87,20.09 25.87,20.75 Z
           M 27.72,20.90
           C 27.68,20.82 27.65,20.47 27.65,19.95
             27.65,19.39 27.68,19.04 27.76,19.00
             27.83,18.97 28.18,18.90 28.67,18.87
             29.16,18.87 29.47,18.87 29.54,18.93
             29.61,19.00 29.68,19.36 29.68,19.92
             29.68,20.47 29.61,20.79 29.47,20.86
             29.47,20.86 29.12,20.90 29.12,20.90
             28.91,20.90 28.63,20.93 28.28,20.93
             27.97,20.93 27.76,20.93 27.72,20.90 Z
           M 1.51,23.31
           C 1.47,24.15 1.51,25.06 1.65,26.00
             1.68,26.18 1.75,26.36 1.78,26.57
             1.78,26.74 1.89,26.81 2.03,26.81
             2.13,26.77 2.27,26.63 2.38,26.42
             2.38,26.42 3.33,24.43 3.33,24.43
             3.64,23.83 3.78,23.38 3.74,23.07
             3.71,22.75 3.50,22.43 3.18,22.19
             2.87,21.95 2.48,21.95 2.10,22.19
             1.68,22.47 1.51,22.86 1.51,23.31 Z
           M 4.38,23.38
           C 4.41,24.15 4.62,24.88 4.83,25.65
             4.83,25.65 5.04,26.22 5.04,26.22
             5.08,26.32 5.18,26.39 5.32,26.36
             5.43,26.32 5.53,26.18 5.60,25.97
             5.81,25.34 6.02,24.71 6.23,24.15
             6.44,23.59 6.51,23.20 6.44,22.92
             6.37,22.65 6.13,22.37 5.81,22.15
             5.46,21.95 5.11,22.02 4.76,22.33
             4.41,22.61 4.30,23.00 4.38,23.38 Z
           M 10.99,17.53
           C 10.96,17.18 10.88,16.34 10.88,15.08
             11.45,15.08 12.08,15.12 12.74,15.12
             13.51,15.12 14.00,14.91 14.11,14.60
             14.25,14.25 14.14,13.93 13.86,13.65
             13.58,13.37 12.85,13.27 11.66,13.30
             11.41,13.30 11.13,13.27 10.88,13.27
             10.88,13.27 10.88,10.99 10.88,10.99
             11.52,10.99 12.18,11.02 12.88,11.02
             13.65,11.02 14.14,10.82 14.25,10.47
             14.38,10.15 14.28,9.83 14.00,9.55
             13.72,9.27 12.98,9.17 11.80,9.20
             11.55,9.20 11.20,9.17 10.92,9.17
             10.92,8.26 10.99,7.52 11.10,7.07
             11.10,7.07 12.60,7.14 12.60,7.14
             13.55,7.17 14.25,7.00 14.56,6.62
             14.84,6.23 14.84,5.84 14.53,5.42
             14.21,5.00 13.83,4.79 13.48,4.79
             12.39,4.79 10.92,4.83 9.07,4.87
             7.25,4.90 5.95,4.90 5.32,4.90
             5.25,4.90 4.97,4.83 4.58,4.83
             4.27,4.79 3.88,4.97 3.53,5.35
             3.22,5.74 3.08,6.33 3.12,7.17
             3.18,8.78 3.18,11.02 3.18,13.79
             3.15,16.59 2.94,18.13 2.66,18.38
             1.72,19.11 1.47,19.81 1.96,20.33
             2.45,20.82 3.22,20.90 4.27,20.47
             4.69,20.16 5.63,19.81 6.93,19.53
             8.22,19.25 9.38,19.15 10.26,19.18
             11.17,19.22 11.69,19.36 11.83,19.50
             12.28,19.84 12.63,20.51 12.78,21.56
             12.78,23.07 12.04,25.48 10.71,28.70
             10.36,29.50 10.50,29.92 11.20,29.92
             11.87,29.92 12.53,29.33 13.13,28.24
             13.83,26.81 14.28,25.52 14.35,24.40
             14.42,23.24 14.60,22.22 14.91,21.49
             15.19,20.68 15.40,20.13 15.40,19.81
             15.47,19.28 15.19,18.76 14.60,18.23
             14.11,17.95 13.16,17.71 11.80,17.57
             11.55,17.53 11.27,17.53 10.99,17.53 Z
           M 6.23,11.23
           C 6.93,11.09 7.77,10.99 8.78,10.99
             8.78,11.34 8.82,11.76 8.82,12.18
             8.82,12.53 8.78,12.92 8.78,13.23
             8.78,13.23 6.93,13.23 6.93,13.23
             6.16,13.20 5.57,13.23 5.14,13.37
             5.14,12.63 5.22,11.90 5.28,11.30
             5.53,11.30 5.84,11.30 6.23,11.23 Z
           M 6.23,15.33
           C 6.93,15.19 7.77,15.08 8.75,15.08
             8.75,16.13 8.68,16.91 8.61,17.32
             8.58,17.40 8.54,17.53 8.54,17.61
             7.80,17.64 7.00,17.78 6.16,17.92
             5.43,18.06 4.97,17.71 4.90,16.91
             4.90,16.38 4.97,15.86 5.00,15.37
             5.28,15.43 5.74,15.40 6.23,15.33 Z
           M 8.68,7.03
           C 8.72,7.38 8.75,8.12 8.75,9.13
             8.75,9.13 6.93,9.13 6.93,9.13
             6.30,9.13 5.81,9.13 5.43,9.20
             5.43,9.13 5.46,9.03 5.46,8.92
             5.39,8.02 5.60,7.38 5.98,7.14
             6.20,6.97 7.14,6.89 8.68,7.03 Z
           M 7.03,23.10
           C 7.18,23.70 7.38,24.36 7.67,24.99
             7.67,24.99 7.91,25.52 7.91,25.52
             7.98,25.65 8.08,25.72 8.19,25.69
             8.29,25.62 8.40,25.48 8.43,25.27
             8.61,24.67 8.78,24.08 8.93,23.59
             9.07,23.10 9.13,22.68 9.07,22.47
             9.00,22.19 8.75,21.95 8.40,21.77
             8.05,21.59 7.70,21.67 7.38,21.95
             7.07,22.26 6.97,22.68 7.03,23.10 Z
           M 9.63,22.54
           C 9.80,23.17 10.08,23.83 10.36,24.50
             10.36,24.50 10.61,24.95 10.61,24.95
             10.68,25.09 10.82,25.17 10.88,25.13
             10.99,25.06 11.10,24.92 11.13,24.75
             11.13,24.75 11.52,23.00 11.52,23.00
             11.66,22.47 11.66,22.05 11.58,21.84
             11.48,21.56 11.23,21.35 10.88,21.21
             10.53,21.07 10.18,21.14 9.91,21.45
             9.63,21.81 9.55,22.15 9.63,22.54 Z
           M 41.37,7.32
           C 41.23,7.07 40.92,6.86 40.60,6.72
             40.22,6.58 39.76,6.62 39.34,6.82
             38.88,7.03 38.53,7.32 38.36,7.67
             38.15,8.02 38.15,8.43 38.36,8.78
             38.57,9.10 39.09,9.34 39.83,9.48
             40.53,9.59 41.23,9.73 41.86,9.87
             42.49,10.01 42.95,9.97 43.12,9.73
             43.33,9.48 43.16,9.07 42.63,8.54
             42.14,8.12 41.68,7.67 41.37,7.32 Z
           M 41.72,12.60
           C 40.63,12.35 39.80,12.00 39.31,11.65
             38.78,11.30 38.15,11.37 37.52,11.87
             36.82,12.35 36.43,12.92 36.37,13.40
             36.30,13.93 36.61,14.14 37.38,14.00
             37.91,13.72 38.33,13.48 38.68,13.37
             39.03,13.27 39.38,13.23 39.66,13.23
             40.46,13.72 40.81,14.21 40.74,14.63
             40.74,14.87 40.43,15.33 39.93,15.82
             39.45,16.27 38.92,16.77 38.36,17.15
             38.22,17.22 38.05,17.32 37.98,17.40
             37.91,17.43 37.87,17.50 37.87,17.50
             37.31,17.67 36.93,18.02 36.86,18.45
             36.78,18.83 36.99,19.15 37.48,19.39
             37.91,19.67 38.50,19.92 39.20,20.06
             39.90,20.16 40.36,20.44 40.50,20.79
             40.63,21.17 40.43,21.52 39.93,21.73
             39.34,22.26 38.85,22.89 38.57,23.42
             38.18,24.12 38.01,24.78 38.08,25.23
             38.15,25.76 38.50,26.22 39.13,26.49
             39.73,26.81 40.39,26.95 40.98,26.92
             43.65,26.67 46.34,26.67 49.03,26.88
             51.73,27.09 55.51,28.14 60.31,29.99
             61.60,30.56 63.00,30.59 64.47,30.10
             65.94,29.61 67.06,29.08 67.69,28.52
             68.32,27.97 68.63,27.51 68.63,27.16
             68.63,26.81 68.14,26.67 67.20,26.67
             63.81,26.67 60.44,26.36 57.16,25.87
             53.90,25.34 50.78,24.95 47.88,24.85
             45.01,24.71 42.95,24.67 41.83,24.75
             41.06,24.85 40.74,24.57 40.78,23.87
             40.81,23.56 41.09,23.20 41.51,22.82
             41.93,22.40 42.35,21.91 42.70,21.28
             43.08,20.86 43.23,20.47 43.08,20.13
             42.95,19.77 42.53,19.46 41.90,19.25
             41.68,19.15 41.44,19.00 41.23,18.80
             40.74,18.31 40.28,17.88 39.93,17.64
             40.71,17.36 41.44,16.91 42.14,16.38
             43.05,15.68 43.58,15.08 43.61,14.70
             43.78,14.07 43.47,13.37 42.63,12.77
             42.49,12.70 42.18,12.60 41.72,12.60 Z
           M 61.28,5.42
           C 61.28,5.42 54.60,5.42 54.60,5.42
             53.03,5.42 52.08,5.39 51.83,5.39
             51.00,5.32 50.08,5.35 49.25,5.53
             48.33,5.74 47.74,6.12 47.43,6.68
             47.08,7.25 47.08,7.73 47.43,8.15
             47.74,8.57 48.62,8.57 50.05,8.19
             50.82,7.91 51.98,7.70 53.48,7.59
             53.48,7.59 53.23,8.19 53.23,8.19
             53.09,8.54 52.71,8.96 52.22,9.52
             51.66,10.05 51.00,10.57 50.16,11.06
             49.35,11.55 48.51,11.93 47.78,12.18
             47.01,12.46 46.34,12.63 45.75,12.70
             45.01,12.81 44.70,13.16 44.83,13.65
             44.98,14.17 45.29,14.63 45.78,14.87
             46.27,15.15 46.90,15.15 47.63,14.84
             49.00,14.28 50.33,13.44 51.56,12.49
             51.56,12.49 51.77,12.28 51.77,12.28
             52.25,12.32 52.82,12.39 53.52,12.57
             53.03,13.44 52.18,14.38 51.03,15.30
             49.63,16.31 48.20,17.18 46.69,17.78
             45.85,18.20 45.33,18.69 45.26,19.07
             45.22,19.53 45.40,19.88 45.92,20.06
             46.45,20.27 47.28,20.09 48.37,19.60
             49.42,19.04 50.51,18.27 51.59,17.25
             52.68,16.20 53.62,15.15 54.28,14.14
             54.57,13.79 54.81,13.40 54.92,13.09
             55.13,13.16 55.37,13.23 55.54,13.33
             55.75,13.44 56.03,13.62 56.24,13.76
             55.83,14.95 54.95,16.17 53.58,17.50
             52.25,18.80 50.78,19.88 49.25,20.68
             48.41,21.17 47.95,21.70 47.95,22.12
             47.92,22.57 48.13,22.89 48.65,23.03
             49.21,23.17 50.02,22.92 51.07,22.29
             52.12,21.63 53.23,20.62 54.35,19.39
             55.44,18.17 56.38,16.91 56.98,15.68
             57.12,15.43 57.29,15.15 57.37,14.91
             57.89,15.65 58.13,16.31 58.13,17.01
             58.13,17.53 57.89,18.17 57.54,18.87
             57.16,19.53 56.63,20.27 55.97,20.93
             55.30,21.67 54.74,22.15 54.35,22.43
             53.58,23.00 53.38,23.52 53.73,23.94
             54.04,24.40 54.57,24.67 55.16,24.67
             55.75,24.67 56.59,24.04 57.54,22.75
             58.52,21.52 59.25,20.33 59.68,19.22
             59.99,18.20 60.17,17.25 60.09,16.48
             60.31,16.63 60.55,16.87 60.79,17.12
             60.79,17.12 62.02,18.52 62.02,18.52
             62.72,19.22 63.63,19.42 64.61,19.07
             65.66,18.76 66.36,18.31 66.74,17.82
             67.13,17.36 67.03,17.01 66.39,16.87
             65.77,16.80 65.24,16.63 64.78,16.48
             64.30,16.31 63.77,16.10 63.18,15.82
             62.65,15.54 62.16,15.33 61.81,15.22
             61.49,15.08 61.22,14.91 60.97,14.77
             60.79,14.63 60.58,14.52 60.44,14.46
             60.58,14.35 60.83,14.21 61.08,14.14
             61.92,13.65 62.54,13.33 62.83,13.27
             63.45,13.02 63.84,12.63 63.91,12.15
             63.94,11.69 63.67,11.13 63.10,10.64
             62.54,10.18 62.02,10.22 61.60,10.67
             61.60,10.67 59.50,13.79 59.50,13.79
             59.39,13.90 59.29,14.00 59.25,14.07
             59.22,14.00 59.15,13.90 59.12,13.86
             58.56,13.12 57.64,12.39 56.45,11.69
             55.44,11.13 54.53,10.71 53.76,10.57
             53.76,10.57 54.46,9.87 54.46,9.87
             55.16,9.10 55.68,8.43 56.10,7.94
             56.21,7.80 56.35,7.63 56.42,7.45
             57.50,7.45 58.45,7.52 59.29,7.59
             60.17,7.73 61.00,7.63 61.60,7.25
             62.23,6.82 62.62,6.40 62.68,5.98
             62.72,5.63 62.30,5.42 61.28,5.42 Z
           M 91.53,6.97
           C 90.19,6.97 88.76,6.89 87.33,6.89
             86.17,6.86 85.40,7.00 85.05,7.32
             84.70,7.67 84.63,8.08 84.84,8.50
             84.81,8.78 84.88,9.38 85.05,10.22
             85.26,11.13 85.33,12.46 85.26,14.11
             85.33,15.02 85.19,15.82 84.91,16.34
             84.77,16.56 84.67,16.83 84.67,17.15
             84.67,17.47 84.84,17.85 85.12,18.27
             85.43,18.69 85.75,18.90 86.03,18.90
             86.28,18.90 86.80,18.72 87.43,18.38
             87.57,18.23 87.85,18.09 88.20,17.99
             88.55,17.88 89.00,17.78 89.57,17.75
             90.13,17.71 90.68,17.71 91.21,17.75
             91.73,17.78 92.08,17.85 92.26,17.92
             92.43,17.99 92.61,18.02 92.72,17.95
             93.07,17.82 93.48,17.40 93.94,16.77
             94.36,16.13 94.57,15.75 94.53,15.65
             94.50,15.57 94.36,15.54 94.18,15.57
             94.05,15.61 93.73,15.68 93.34,15.75
             93.00,15.82 92.54,15.86 92.08,15.86
             91.73,15.86 91.18,15.89 90.48,15.89
             90.48,15.89 90.48,15.30 90.48,15.30
             90.48,14.81 90.48,14.49 90.51,14.35
             90.58,14.28 90.72,14.32 90.83,14.35
             91.32,14.42 91.73,14.35 91.98,14.07
             92.26,13.76 92.54,13.20 92.68,12.53
             92.72,12.39 92.82,12.18 92.93,11.97
             93.07,11.73 93.10,11.48 93.03,11.27
             92.96,11.06 92.72,10.82 92.37,10.60
             92.05,10.40 91.42,10.29 90.51,10.29
             90.51,10.29 90.51,9.42 90.51,9.42
             90.48,9.07 90.48,8.78 90.48,8.68
             90.48,8.68 92.50,8.68 92.50,8.68
             93.28,8.68 93.69,8.50 93.80,8.15
             93.91,7.80 93.83,7.49 93.59,7.28
             93.34,7.03 92.61,6.93 91.53,6.97 Z
           M 86.83,16.24
           C 86.77,16.10 86.69,15.54 86.69,14.60
             86.69,14.60 87.43,14.60 87.43,14.60
             88.03,14.49 88.55,14.38 88.90,14.38
             88.93,14.32 88.93,14.35 88.93,14.38
             88.93,14.38 88.93,15.19 88.93,15.19
             88.97,15.65 88.97,15.96 88.97,16.03
             88.41,16.07 87.95,16.10 87.64,16.17
             87.18,16.27 86.87,16.31 86.83,16.24 Z
           M 87.08,8.78
           C 87.57,8.72 88.23,8.68 88.93,8.68
             88.93,8.78 88.97,9.03 88.97,9.31
             88.97,9.31 88.97,10.18 88.97,10.18
             88.97,10.25 88.93,10.29 88.93,10.36
             88.93,10.36 87.75,10.36 87.75,10.36
             87.43,10.36 87.08,10.36 86.83,10.43
             86.83,9.94 86.94,9.52 87.01,9.27
             87.05,9.07 87.08,8.89 87.08,8.78 Z
           M 86.77,12.98
           C 86.77,12.98 86.77,11.87 86.77,11.87
             86.91,11.87 87.15,11.83 87.43,11.80
             87.95,11.69 88.55,11.58 89.00,11.55
             89.43,11.55 89.98,11.48 90.55,11.48
             90.75,11.52 90.97,11.58 91.03,11.65
             91.11,11.69 91.11,11.76 91.11,11.83
             91.11,12.35 91.00,12.74 90.83,12.92
             90.75,12.98 90.51,13.06 90.19,13.06
             89.70,13.06 89.22,13.12 88.80,13.12
             88.34,13.12 87.95,13.16 87.75,13.16
             87.36,13.12 87.01,13.12 86.77,13.16
             86.77,13.16 86.77,12.98 86.77,12.98 Z
           M 97.27,14.25
           C 97.58,15.33 97.86,16.10 98.07,16.48
             98.63,17.18 99.19,17.53 99.78,17.50
             100.42,17.47 100.87,17.22 101.15,16.87
             101.43,16.48 101.29,16.03 100.66,15.54
             99.61,14.77 98.77,14.07 98.14,13.51
             97.86,13.23 97.62,13.20 97.41,13.33
             97.19,13.48 97.13,13.82 97.27,14.25 Z
           M 97.44,19.11
           C 95.03,18.97 92.26,18.90 89.22,18.97
             88.06,18.97 87.29,19.07 87.01,19.32
             86.73,19.57 86.59,20.09 86.59,20.79
             86.59,20.79 86.59,25.34 86.59,25.34
             86.63,25.62 86.63,25.90 86.63,26.11
             86.20,26.11 85.93,26.14 85.78,26.14
             85.30,26.11 84.81,26.32 84.49,26.70
             83.86,27.47 83.79,28.14 84.21,28.67
             84.63,29.19 85.33,29.22 86.17,28.81
             86.59,28.59 87.15,28.38 87.71,28.21
             88.34,28.07 89.28,27.89 90.58,27.79
             91.91,27.72 93.24,27.72 94.61,27.75
             95.97,27.82 97.02,27.97 97.75,28.17
             98.53,28.35 99.33,28.67 100.24,29.08
             100.94,29.37 101.57,29.33 102.03,28.94
             102.48,28.52 102.90,27.97 103.25,27.44
             103.57,26.88 103.50,26.53 102.93,26.46
             102.93,26.46 99.37,26.04 99.37,26.04
             99.37,25.83 99.43,25.58 99.43,25.37
             99.54,24.22 99.61,23.31 99.61,22.75
             99.61,22.19 99.64,21.73 99.72,21.38
             99.75,20.65 99.58,20.13 99.19,19.77
             98.84,19.42 98.21,19.18 97.44,19.11 Z
           M 95.55,23.38
           C 95.55,22.15 95.58,21.28 95.66,20.72
             96.53,20.79 97.16,21.03 97.44,21.32
             97.48,21.35 97.55,21.81 97.55,22.61
             97.55,23.38 97.55,24.29 97.51,25.23
             97.51,25.23 97.51,25.83 97.51,25.83
             97.51,25.83 95.55,25.72 95.55,25.72
             95.55,25.72 95.55,23.38 95.55,23.38 Z
           M 92.05,23.31
           C 92.05,21.98 92.05,21.11 92.12,20.68
             92.12,20.68 92.89,20.68 92.89,20.68
             93.31,20.68 93.73,20.65 94.12,20.65
             94.15,21.00 94.15,21.87 94.15,23.20
             94.15,24.57 94.08,25.41 94.01,25.69
             94.01,25.69 92.12,25.69 92.12,25.69
             92.08,25.34 92.05,24.53 92.05,23.31 Z
           M 90.65,23.17
           C 90.65,24.47 90.65,25.27 90.58,25.62
             90.58,25.65 90.55,25.72 90.55,25.79
             90.16,25.79 89.74,25.83 89.36,25.90
             89.08,25.90 88.80,25.97 88.58,25.97
             88.66,25.65 88.69,25.27 88.69,24.88
             88.69,24.88 88.69,22.57 88.69,22.57
             88.69,21.84 88.76,21.42 88.76,21.35
             88.87,21.14 89.46,20.93 90.55,20.82
             90.62,21.25 90.65,22.02 90.65,23.17 Z
           M 93.94,13.93
           C 94.43,14.00 94.85,13.86 95.27,13.48
             95.66,13.16 96.00,12.85 96.28,12.49
             96.53,12.15 96.81,11.76 97.02,11.41
             97.02,11.37 97.09,11.30 97.09,11.27
             97.37,11.41 97.72,11.44 98.14,11.37
             98.77,11.23 99.33,11.23 99.82,11.34
             100.17,11.55 100.56,11.83 100.87,12.15
             101.43,12.35 101.99,12.18 102.38,11.69
             102.80,11.17 103.11,10.60 103.22,10.15
             103.32,9.66 103.08,9.48 102.45,9.66
             102.17,9.70 101.71,9.77 101.01,9.77
             100.35,9.77 99.50,9.73 98.56,9.66
             98.21,9.59 97.89,9.48 97.65,9.42
             97.68,9.17 97.72,8.92 97.79,8.78
             97.93,8.37 97.86,7.94 97.62,7.52
             97.33,7.14 96.98,6.86 96.57,6.86
             96.18,6.82 95.90,6.93 95.76,7.14
             95.66,7.32 95.66,7.59 95.73,7.84
             95.80,8.08 95.90,8.50 95.97,8.96
             95.97,9.17 95.90,9.42 95.83,9.70
             95.76,9.94 95.58,10.22 95.44,10.40
             95.31,10.64 94.99,10.99 94.68,11.34
             94.33,11.69 93.87,12.07 93.34,12.46
             93.10,12.70 93.03,13.02 93.10,13.27
             93.20,13.58 93.48,13.82 93.94,13.93 Z
           M 77.98,12.92
           C 78.05,13.58 78.23,14.32 78.43,15.02
             78.50,15.15 78.58,15.30 78.61,15.43
             78.68,15.57 78.75,15.61 78.82,15.57
             78.89,15.54 79.00,15.40 79.03,15.26
             79.17,14.63 79.34,14.07 79.48,13.55
             79.63,13.09 79.66,12.67 79.59,12.42
             79.52,12.22 79.34,12.00 79.07,11.87
             78.78,11.73 78.54,11.80 78.26,12.04
             78.02,12.28 77.91,12.60 77.98,12.92 Z
           M 77.84,19.74
           C 77.91,20.58 78.08,21.52 78.30,22.40
             78.37,22.54 78.43,22.68 78.47,22.82
             78.54,22.96 78.64,23.00 78.72,22.96
             78.75,22.92 78.86,22.78 78.89,22.65
             79.03,21.95 79.24,21.25 79.38,20.62
             79.52,20.02 79.56,19.53 79.45,19.25
             79.38,19.04 79.20,18.87 78.93,18.72
             78.68,18.58 78.40,18.66 78.12,18.90
             77.88,19.11 77.77,19.42 77.84,19.74 Z
           M 83.37,27.51
           C 82.92,24.57 82.70,21.49 82.70,18.31
             82.70,18.31 82.70,17.99 82.70,17.99
             82.95,17.95 83.19,17.85 83.44,17.71
             83.93,17.40 84.25,17.05 84.32,16.77
             84.35,16.45 83.97,16.27 83.19,16.27
             83.19,16.27 82.74,16.27 82.74,16.27
             82.81,14.17 83.06,12.60 83.33,11.69
             83.62,10.78 83.51,10.08 83.13,9.66
             82.70,9.24 82.04,9.07 81.27,9.13
             80.75,9.17 79.94,9.17 78.89,9.13
             78.75,9.13 78.58,9.10 78.43,9.10
             78.64,8.89 78.93,8.64 79.24,8.37
             79.69,7.87 80.15,7.42 80.50,7.10
             80.92,6.65 80.95,6.12 80.68,5.67
             80.36,5.18 79.80,4.93 79.03,4.97
             78.26,5.04 77.88,5.39 77.91,5.98
             77.98,6.27 77.94,6.68 77.84,7.10
             77.77,7.49 77.45,8.12 77.03,8.89
             77.00,8.92 76.93,8.99 76.93,9.03
             76.83,9.03 76.72,8.99 76.68,8.99
             75.84,8.92 75.28,8.96 75.00,9.17
             74.76,9.38 74.55,9.66 74.44,10.01
             74.38,10.29 74.34,10.78 74.38,11.34
             74.41,13.16 74.44,14.84 74.44,16.20
             74.17,16.20 73.82,16.31 73.50,16.38
             72.83,16.52 72.34,16.87 72.10,17.29
             71.86,17.67 71.86,18.09 72.10,18.41
             72.34,18.76 73.05,18.76 74.17,18.45
             74.23,18.41 74.34,18.34 74.41,18.34
             74.41,18.93 74.38,19.46 74.38,19.95
             74.23,21.70 73.95,23.07 73.61,24.01
             73.25,24.95 72.80,26.00 72.17,27.09
             71.50,27.97 71.26,28.70 71.37,29.19
             71.43,29.64 71.78,29.92 72.34,29.92
             72.91,29.92 73.53,29.47 74.27,28.59
             74.69,27.82 75.14,26.92 75.53,25.90
             75.88,24.85 76.19,23.38 76.41,21.59
             76.48,20.47 76.58,19.28 76.58,17.99
             76.93,17.95 77.28,17.92 77.70,17.92
             78.78,17.85 79.83,17.85 80.64,17.88
             80.64,17.88 80.64,21.45 80.64,21.45
             80.64,24.18 80.68,26.14 80.75,27.23
             80.82,28.32 81.06,29.12 81.44,29.43
             81.83,29.82 82.32,29.89 82.84,29.61
             83.37,29.37 83.55,28.67 83.37,27.51 Z
           M 76.62,15.19
           C 76.55,12.74 76.62,11.44 76.79,11.34
             76.97,11.27 77.56,11.20 78.61,11.20
             79.63,11.20 80.25,11.23 80.53,11.37
             80.75,11.44 80.82,12.49 80.75,14.42
             80.71,14.98 80.68,15.65 80.68,16.27
             80.68,16.27 77.77,16.27 77.77,16.27
             77.32,16.27 76.93,16.24 76.62,16.24
             76.62,16.24 76.62,15.19 76.62,15.19 Z
           M 116.10,12.32
           C 114.87,12.88 113.61,13.23 112.35,13.40
             111.37,13.62 110.78,13.97 110.57,14.38
             110.39,14.77 110.53,15.19 110.98,15.50
             111.48,15.86 112.35,15.89 113.61,15.68
             114.42,15.50 115.36,15.12 116.34,14.63
             116.83,14.35 117.36,14.00 117.81,13.68
             118.27,14.21 118.93,14.38 119.70,14.25
             121.07,14.03 122.40,13.86 123.62,13.79
             124.85,13.72 126.77,13.79 129.22,13.93
             130.06,14.03 130.72,14.38 131.11,14.91
             131.35,15.30 131.57,16.03 131.60,16.97
             131.67,17.92 131.78,19.00 131.88,20.16
             131.88,21.73 131.74,23.00 131.50,23.94
             131.25,24.88 130.80,25.72 130.17,26.32
             129.57,26.95 128.70,27.44 127.68,27.72
             126.67,27.97 125.58,28.00 124.63,27.86
             124.01,27.89 123.80,28.17 123.90,28.67
             123.97,29.15 124.50,29.72 125.33,30.31
             126.14,30.90 127.37,30.87 128.94,30.27
             130.31,29.78 131.35,29.12 132.02,28.32
             132.68,27.54 133.18,26.53 133.53,25.45
             133.88,24.36 134.05,23.00 134.05,21.49
             133.98,19.46 133.98,18.06 134.08,17.40
             134.16,16.70 134.30,16.07 134.47,15.50
             134.82,14.56 134.78,13.76 134.37,13.16
             133.98,12.60 133.10,12.28 131.88,12.28
             129.12,12.07 126.46,11.97 123.97,11.97
             122.15,11.97 120.75,11.87 119.84,11.80
             119.98,11.62 120.08,11.37 120.08,11.17
             120.08,10.60 119.91,10.25 119.63,10.15
             119.38,10.01 119.03,10.15 118.76,10.53
             118.20,11.20 117.32,11.80 116.10,12.32 Z
           M 116.62,16.80
           C 116.55,16.59 116.31,16.38 115.99,16.24
             115.71,16.10 115.33,16.13 114.98,16.27
             114.56,16.42 114.24,16.66 114.07,16.94
             113.89,17.22 113.89,17.53 114.03,17.82
             114.17,18.13 114.59,18.38 115.22,18.52
             115.82,18.66 116.41,18.87 116.93,19.00
             117.46,19.15 117.85,19.15 118.02,19.00
             118.16,18.80 118.09,18.45 117.71,17.95
             117.25,17.53 116.87,17.15 116.62,16.80 Z
           M 124.78,16.27
           C 124.08,16.87 123.45,17.53 122.85,18.31
             122.78,18.45 122.64,18.66 122.53,18.80
             122.47,18.93 122.47,19.04 122.53,19.11
             122.64,19.15 122.85,19.15 123.06,19.07
             123.83,18.87 124.53,18.58 125.16,18.38
             125.76,18.17 126.21,17.92 126.42,17.64
             126.60,17.47 126.67,17.12 126.63,16.70
             126.60,16.31 126.32,16.07 125.90,16.00
             125.44,15.92 125.06,16.03 124.78,16.27 Z
           M 128.38,19.92
           C 125.72,19.92 123.45,19.84 121.56,19.84
             121.56,18.90 121.59,18.02 121.63,17.36
             121.63,16.31 121.45,15.57 121.17,15.19
             120.93,14.77 120.58,14.63 120.23,14.73
             119.88,14.81 119.60,15.12 119.42,15.61
             119.21,16.10 119.14,16.94 119.21,18.09
             119.21,18.52 119.18,19.11 119.18,19.84
             119.18,19.84 118.83,19.84 118.83,19.84
             116.58,19.84 115.22,19.77 114.87,19.74
             114.00,19.67 113.12,19.70 112.28,19.88
             111.37,20.09 110.78,20.47 110.46,21.03
             110.11,21.59 110.11,22.08 110.46,22.50
             110.78,22.92 111.65,22.92 113.08,22.54
             114.31,22.12 116.20,21.91 118.72,21.84
             118.16,22.50 117.32,23.20 116.31,23.87
             114.94,24.71 113.47,25.37 112.03,25.83
             110.98,26.22 110.43,26.67 110.28,27.16
             110.15,27.65 110.36,28.03 110.92,28.32
             111.48,28.59 112.42,28.49 113.75,28.00
             114.73,27.58 115.78,26.84 116.87,25.97
             117.74,25.20 118.48,24.40 119.11,23.62
             119.11,23.62 119.11,26.95 119.11,26.95
             119.14,28.59 119.32,29.61 119.56,29.96
             119.81,30.31 120.16,30.45 120.51,30.34
             120.86,30.24 121.13,29.78 121.28,29.05
             121.42,28.28 121.48,27.27 121.45,25.97
             121.45,24.43 121.52,23.03 121.52,21.81
             123.45,21.81 125.13,21.91 126.42,22.08
             127.30,22.22 128.13,22.12 128.73,21.73
             129.36,21.32 129.75,20.90 129.82,20.47
             129.85,20.13 129.43,19.92 128.38,19.92 Z
           M 123.27,23.20
           C 122.92,23.07 122.61,23.07 122.47,23.24
             122.33,23.38 122.43,23.70 122.75,24.18
             123.06,24.61 123.62,25.09 124.28,25.62
             124.98,26.18 125.62,26.49 126.11,26.63
             126.73,26.77 127.23,26.63 127.58,26.18
             127.93,25.69 128.00,25.17 127.86,24.67
             127.72,24.18 127.16,23.87 126.35,23.87
             125.86,23.87 125.33,23.77 124.78,23.62
             124.25,23.52 123.76,23.38 123.27,23.20 Z
           M 128.91,5.32
           C 128.48,4.87 127.96,4.72 127.37,4.93
             126.81,5.11 126.53,5.57 126.53,6.19
             126.53,6.33 126.49,6.62 126.46,6.93
             126.46,6.93 120.51,6.93 120.51,6.93
             119.46,6.93 118.41,6.97 117.50,6.97
             117.50,6.58 117.50,6.23 117.53,6.02
             117.63,5.60 117.39,5.18 116.76,4.83
             116.17,4.48 115.61,4.52 115.18,4.90
             114.70,5.28 114.56,5.70 114.73,6.09
             114.83,6.37 114.98,6.68 115.05,7.00
             113.54,7.03 112.14,7.14 110.88,7.21
             110.01,7.28 109.27,7.59 108.64,8.19
             108.01,8.75 107.73,9.31 107.73,9.80
             107.73,10.25 107.94,10.64 108.33,10.85
             108.75,11.06 109.62,10.92 110.98,10.43
             112.28,9.97 113.82,9.55 115.64,9.27
             115.68,9.52 115.78,9.83 115.85,10.15
             115.99,10.64 116.23,11.06 116.52,11.27
             116.76,11.48 117.04,11.48 117.28,11.23
             117.50,10.95 117.63,10.53 117.63,10.05
             117.60,9.70 117.57,9.34 117.57,9.03
             119.32,8.82 120.96,8.68 122.40,8.64
             123.83,8.72 125.16,8.78 126.25,8.89
             126.25,9.10 126.18,9.38 126.18,9.66
             126.07,10.29 126.11,10.82 126.28,11.17
             126.42,11.52 126.70,11.58 127.02,11.37
             127.33,11.17 127.65,10.67 127.89,9.94
             127.89,9.94 128.13,9.13 128.13,9.13
             128.45,9.17 128.83,9.24 129.18,9.31
             130.69,9.63 131.85,10.01 132.68,10.32
             133.60,10.64 134.37,10.67 134.93,10.47
             135.52,10.25 136.12,9.77 136.71,9.07
             137.31,8.40 137.55,7.91 137.48,7.63
             137.41,7.35 136.96,7.21 136.12,7.17
             135.45,7.17 133.60,7.07 130.66,7.00
             130.10,7.00 129.53,6.97 128.97,6.97
             129.01,6.89 129.08,6.79 129.15,6.72
             129.43,6.27 129.36,5.81 128.91,5.32 Z
           M 162.86,20.09
           C 162.86,22.61 163.00,25.41 163.24,28.38
             163.28,28.73 163.45,29.08 163.73,29.33
             164.01,29.57 164.36,29.68 164.75,29.64
             165.06,29.61 165.45,29.29 165.73,28.84
             166.15,27.93 166.18,26.67 165.76,25.09
             165.34,23.52 165.13,20.82 165.13,17.05
             165.13,13.23 165.23,10.95 165.31,10.25
             165.38,9.77 165.55,9.31 165.80,8.96
             166.04,8.61 166.15,8.22 166.11,7.91
             166.04,7.56 165.83,7.25 165.48,6.89
             165.17,6.54 164.68,6.33 164.01,6.33
             164.01,6.33 158.69,6.33 158.69,6.33
             155.68,6.33 153.83,6.30 153.20,6.30
             153.20,6.30 151.97,6.23 151.97,6.23
             151.66,6.23 151.34,6.40 151.06,6.82
             150.82,7.21 150.78,7.91 150.92,8.85
             151.10,10.29 151.17,11.93 151.17,13.65
             151.17,15.37 150.50,17.43 149.35,19.74
             148.16,22.05 146.27,24.43 143.78,26.81
             143.26,27.27 142.94,27.68 142.94,27.97
             142.94,28.28 143.12,28.63 143.47,28.98
             143.82,29.29 144.23,29.40 144.69,29.29
             145.18,29.22 145.71,28.91 146.23,28.42
             147.28,27.33 148.33,25.97 149.28,24.47
             150.01,23.31 150.71,21.84 151.38,20.16
             151.38,20.16 151.66,20.16 151.66,20.16
             152.43,20.06 154.38,19.95 157.40,19.92
             160.20,19.92 162.02,19.95 162.86,20.09 Z
           M 153.13,13.93
           C 153.79,13.86 155.47,13.76 158.13,13.72
             160.68,13.72 162.33,13.79 163.03,13.93
             163.03,14.38 163.00,14.87 163.00,15.43
             162.93,16.17 162.89,17.08 162.89,17.95
             162.05,18.02 160.30,18.13 157.64,18.17
             154.98,18.17 153.13,18.09 152.08,17.99
             152.53,16.56 152.88,15.19 153.13,13.93 Z
           M 157.18,8.19
           C 159.43,8.12 160.86,8.15 161.42,8.26
             161.95,8.37 162.33,8.50 162.47,8.64
             162.82,9.07 163.03,10.18 163.07,11.87
             162.33,11.93 160.76,12.00 158.38,12.04
             155.75,12.04 153.97,11.97 153.13,11.83
             153.13,10.15 153.27,9.03 153.51,8.68
             153.72,8.40 154.95,8.22 157.18,8.19 Z
           M 196.77,11.87
           C 193.45,11.80 190.82,11.80 188.90,11.87
             186.97,11.93 185.47,12.04 184.45,12.07
             183.43,12.11 182.77,12.35 182.49,12.77
             182.25,13.16 182.25,13.68 182.53,14.32
             182.73,14.67 183.19,16.03 183.78,18.20
             184.07,19.07 184.38,19.70 184.73,19.98
             185.08,20.27 185.50,20.30 185.99,20.02
             186.97,19.60 188.76,19.32 191.21,19.28
             193.69,19.28 195.68,19.46 197.19,19.88
             197.89,20.06 198.48,20.02 199.01,19.77
             199.50,19.53 199.88,19.00 200.17,18.20
             200.34,17.61 200.58,16.97 200.87,16.31
             201.15,15.68 201.36,15.12 201.57,14.77
             201.92,14.17 202.02,13.65 201.81,13.33
             201.60,13.09 201.22,12.74 200.62,12.39
             200.03,12.07 198.73,11.87 196.77,11.87 Z
           M 193.38,15.75
           C 193.38,14.70 193.41,14.03 193.45,13.72
             194.67,13.65 196.11,13.65 197.61,13.68
             198.31,13.68 198.80,13.76 199.01,13.90
             199.22,14.03 199.29,14.25 199.22,14.49
             199.01,15.37 198.66,16.31 198.35,17.36
             198.28,17.50 198.13,17.57 198.00,17.64
             197.86,17.71 197.47,17.75 196.98,17.75
             195.86,17.67 194.67,17.64 193.45,17.64
             193.45,17.43 193.38,16.77 193.38,15.75 Z
           M 191.10,13.82
           C 191.13,14.03 191.21,14.63 191.21,15.61
             191.21,16.56 191.17,17.18 191.13,17.40
             191.10,17.47 191.07,17.57 191.07,17.67
             189.67,17.71 188.16,17.82 186.66,17.92
             186.38,17.95 186.13,17.92 185.99,17.85
             185.85,17.78 185.71,17.61 185.64,17.50
             185.29,16.48 185.05,15.57 184.94,14.73
             184.94,14.60 184.98,14.38 185.05,14.25
             185.15,14.11 185.33,13.97 185.61,13.93
             186.80,13.79 188.65,13.65 191.07,13.65
             191.07,13.68 191.10,13.76 191.10,13.82 Z
           M 186.62,16.13
           C 186.83,16.27 187.22,16.34 187.71,16.27
             187.71,16.27 189.60,16.03 189.60,16.03
             189.95,15.96 190.12,15.82 190.12,15.65
             190.12,15.47 189.88,15.30 189.49,15.15
             189.14,15.08 188.65,14.98 188.13,14.91
             187.63,14.84 187.18,14.81 186.83,14.84
             186.55,14.84 186.34,15.08 186.34,15.43
             186.34,15.78 186.41,16.03 186.62,16.13 Z
           M 197.37,14.77
           C 197.08,14.67 196.70,14.70 196.21,14.84
             195.72,14.98 195.09,15.22 194.28,15.47
             193.97,15.61 193.87,15.78 193.87,15.96
             193.87,16.10 194.11,16.24 194.57,16.27
             194.57,16.27 196.00,16.27 196.00,16.27
             196.56,16.27 197.02,16.20 197.37,16.10
             197.68,16.07 197.82,15.82 197.78,15.47
             197.78,15.12 197.61,14.87 197.37,14.77 Z
           M 179.83,13.16
           C 181.55,12.63 183.75,11.62 186.34,10.12
             186.41,10.05 186.52,9.97 186.58,9.97
             186.52,10.18 186.55,10.40 186.66,10.64
             186.87,11.06 187.50,11.17 188.37,10.99
             189.21,10.85 190.23,10.71 191.38,10.71
             192.53,10.67 193.97,10.67 195.55,10.67
             196.25,10.67 196.70,10.50 196.81,10.22
             196.88,9.90 196.81,9.59 196.56,9.34
             196.32,9.13 195.62,9.03 194.60,9.07
             192.82,9.07 190.96,9.10 189.00,9.13
             189.00,9.13 187.92,9.13 187.92,9.13
             187.92,9.13 191.28,6.97 191.28,6.97
             191.66,6.97 192.12,7.03 192.50,7.17
             193.06,7.32 194.04,7.73 195.44,8.43
             196.84,9.10 199.29,10.47 202.72,12.53
             203.67,13.16 204.78,13.16 205.94,12.57
             207.13,11.93 207.97,11.37 208.43,10.82
             208.85,10.29 208.46,10.08 207.17,10.08
             205.94,10.08 204.12,9.73 201.63,8.99
             199.18,8.29 197.02,7.42 195.30,6.54
             193.90,5.81 192.92,5.22 192.50,4.83
             192.50,4.83 192.47,4.69 192.47,4.69
             192.33,4.44 192.05,4.38 191.66,4.38
             191.31,4.38 190.93,4.62 190.58,5.11
             190.16,5.57 189.00,6.30 187.18,7.32
             185.33,8.26 183.58,9.07 181.93,9.66
             180.28,10.22 179.06,10.57 178.29,10.64
             177.42,10.78 176.78,10.99 176.58,11.23
             176.37,11.52 176.37,11.93 176.61,12.53
             176.89,13.16 177.35,13.48 177.83,13.51
             178.33,13.51 179.03,13.40 179.83,13.16 Z
           M 187.67,30.07
           C 188.68,29.82 190.26,29.68 192.29,29.68
             194.25,29.68 195.51,29.72 195.97,29.82
             196.60,29.96 197.23,29.89 197.82,29.61
             198.35,29.33 198.70,28.73 198.70,27.79
             198.70,26.04 198.73,24.18 198.80,22.37
             198.80,21.77 198.59,21.32 198.13,21.03
             197.65,20.75 196.91,20.58 195.93,20.51
             194.53,20.47 192.88,20.47 191.07,20.55
             191.07,20.55 186.90,20.68 186.90,20.68
             186.31,20.68 185.82,20.86 185.47,21.17
             185.15,21.52 185.05,22.05 185.12,22.75
             185.12,23.03 185.15,23.45 185.15,23.97
             185.15,24.50 185.18,25.17 185.22,25.93
             185.26,26.67 185.29,27.37 185.29,27.89
             185.33,28.81 185.57,29.43 185.96,29.78
             186.31,30.13 186.90,30.24 187.67,30.07 Z
           M 192.22,24.22
           C 189.73,24.22 188.09,24.15 187.25,24.01
             187.25,23.31 187.28,22.86 187.43,22.75
             187.63,22.57 189.14,22.43 191.94,22.43
             194.71,22.43 196.18,22.47 196.25,22.57
             196.32,22.68 196.38,23.20 196.46,24.08
             196.46,24.08 192.22,24.22 192.22,24.22 Z
           M 187.36,25.79
           C 188.13,25.72 189.63,25.65 191.98,25.65
             194.18,25.65 195.72,25.69 196.49,25.76
             196.49,26.60 196.42,27.16 196.28,27.30
             196.14,27.44 195.58,27.51 194.78,27.51
             193.93,27.51 192.53,27.58 190.75,27.65
             188.93,27.72 187.92,27.72 187.74,27.58
             187.60,27.47 187.43,26.84 187.36,25.79 Z" />
</svg>
